<svg xmlns="http://www.w3.org/2000/svg" viewBox="-308 -124 2057 829" preserveAspectRatio="xMidYMid slice" width="1440" height="580">
  <defs>
    <linearGradient id="cBg" x1="0" y1="0" x2="1" y2="0">
      <stop offset="0%"   stop-color="#424040"/>
      <stop offset="28%"  stop-color="#555250"/>
      <stop offset="54%"  stop-color="#5E5A56"/>
      <stop offset="78%"  stop-color="#575350"/>
      <stop offset="100%" stop-color="#4A4744"/>
    </linearGradient>
    <linearGradient id="cTopS" x1="0" y1="0" x2="0" y2="1">
      <stop offset="0%"   stop-color="#1C1810" stop-opacity="0.55"/>
      <stop offset="38%"  stop-color="#1C1810" stop-opacity="0"/>
      <stop offset="100%" stop-color="#100C08" stop-opacity="0.42"/>
    </linearGradient>
    <radialGradient id="cKey" cx="72%" cy="14%" r="55%">
      <stop offset="0%"   stop-color="#807060" stop-opacity="0.58"/>
      <stop offset="100%" stop-color="#5E5A56" stop-opacity="0"/>
    </radialGradient>
    <linearGradient id="cFloor" x1="0" y1="0" x2="0" y2="1">
      <stop offset="0%"   stop-color="#363230"/>
      <stop offset="100%" stop-color="#242018"/>
    </linearGradient>
    <linearGradient id="cVigL" x1="0" y1="0" x2="1" y2="0">
      <stop offset="0%"   stop-color="#C8C8C8" stop-opacity="0.35"/>
      <stop offset="100%" stop-color="#C8C8C8" stop-opacity="0"/>
    </linearGradient>
    <linearGradient id="cVigR" x1="0" y1="0" x2="1" y2="0">
      <stop offset="0%"   stop-color="#C8C8C8" stop-opacity="0"/>
      <stop offset="100%" stop-color="#C8C8C8" stop-opacity="0.35"/>
    </linearGradient>
    <linearGradient id="cVigB" x1="0" y1="0" x2="0" y2="1">
      <stop offset="0%"   stop-color="#D0D0D0" stop-opacity="0"/>
      <stop offset="100%" stop-color="#D0D0D0" stop-opacity="0.28"/>
    </linearGradient>
    <radialGradient id="cFlare" cx="50%" cy="50%" r="50%">
      <stop offset="0%"   stop-color="#FFFFFF" stop-opacity="0.95"/>
      <stop offset="18%"  stop-color="#F8F0D0" stop-opacity="0.62"/>
      <stop offset="50%"  stop-color="#D8C090" stop-opacity="0.22"/>
      <stop offset="100%" stop-color="#D8C090" stop-opacity="0"/>
    </radialGradient>
  </defs>

  <!-- ── BACKGROUND ──────────────────────────────────── -->
  <rect x="-308" y="-124" width="2057" height="829" fill="url(#cBg)"/>
  <rect x="-308" y="-124" width="2057" height="829" fill="url(#cTopS)"/>
  <rect x="-308" y="-124" width="2057" height="829" fill="url(#cKey)"/>
  <rect x="-308" y="448"  width="2057" height="257" fill="url(#cFloor)"/>
  <rect x="-308" y="445"  width="2057" height="5"   fill="#14100C" opacity="0.38"/>

  <!-- ── ORGANIC BLOB SHAPES ────────────────────────── -->
  <path d="M -308,829 Q -180,680 -60,650 Q 80,618 110,700 Q 140,775 20,815 Q -100,850 -220,835 Z"
    fill="rgba(170,148,118,0.07)" stroke="#D8CEB8" stroke-width="1.6" opacity="0.38"/>
  <path d="M -308,680 Q -130,560 20,588 Q 140,612 155,700 Q 168,785 40,808 Q -90,832 -220,812 Z"
    fill="rgba(150,130,100,0.05)" stroke="#C8C0A8" stroke-width="1.1" opacity="0.28"/>
  <path d="M 1430,-124 Q 1620,20 1710,130 Q 1800,240 1749,390 Q 1700,520 1540,490 Q 1380,460 1370,320 Q 1360,180 1430,-124 Z"
    fill="rgba(150,130,100,0.06)" stroke="#D0C6AC" stroke-width="1.6" opacity="0.32"/>
  <ellipse cx="1730" cy="650" rx="185" ry="145"
    fill="rgba(130,112,88,0.05)" stroke="#C8BEA8" stroke-width="1.2" opacity="0.25"/>
  <path d="M 1310,160 Q 1400,80 1470,150 Q 1540,220 1500,310 Q 1460,400 1370,375 Q 1280,350 1310,255 Z"
    fill="none" stroke="#C0B8A0" stroke-width="1" opacity="0.20"/>

  <!-- ── WAVY LINES ──────────────────────────────────── -->
  <path d="M -308,280 Q 200,228 520,268 Q 780,302 960,258 Q 1140,214 1340,242 Q 1550,272 1749,222"
    fill="none" stroke="#D8CEB8" stroke-width="0.9" opacity="0.16"/>
  <path d="M -308,530 Q 80,482 360,512 Q 620,540 830,494 Q 1040,448 1250,476 Q 1500,508 1749,458"
    fill="none" stroke="#D8CEB8" stroke-width="0.9" opacity="0.14"/>

  <!-- ── LENS FLARES ────────────────────────────────── -->
  <ellipse cx="-100" cy="640" rx="30" ry="30" fill="url(#cFlare)" opacity="0.78"/>
  <line x1="-140" y1="640" x2="-60"  y2="640" stroke="#FFFFFF" stroke-width="0.9" opacity="0.32"/>
  <line x1="-100" y1="600" x2="-100" y2="680" stroke="#FFFFFF" stroke-width="0.9" opacity="0.32"/>
  <ellipse cx="-55" cy="625" rx="9" ry="9" fill="url(#cFlare)" opacity="0.45"/>
  <ellipse cx="1595" cy="490" rx="24" ry="24" fill="url(#cFlare)" opacity="0.68"/>
  <line x1="1562" y1="490" x2="1628" y2="490" stroke="#FFFFFF" stroke-width="0.8" opacity="0.28"/>
  <line x1="1595" y1="457" x2="1595" y2="523" stroke="#FFFFFF" stroke-width="0.8" opacity="0.28"/>
  <ellipse cx="1634" cy="510" rx="8" ry="8" fill="url(#cFlare)" opacity="0.40"/>

  <!-- ── GOLD CAREERS ICONS ──────────────────────────── -->

  <!-- 1 ── BRIEFCASE (career/opportunity) x=760 ── -->
  <g transform="translate(500,310)" fill="none" stroke="#C9A96E" stroke-linecap="round" stroke-linejoin="round">
    <!-- Case body -->
    <rect x="-52" y="-30" width="104" height="78" rx="8" stroke-width="2.8"/>
    <!-- Center divider -->
    <line x1="-52" y1="10" x2="52" y2="10" stroke-width="2.2" opacity="0.75"/>
    <!-- Handle -->
    <path d="M -22,-30 L -22,-50 Q -22,-62 -10,-62 L 10,-62 Q 22,-62 22,-50 L 22,-30" stroke-width="2.8"/>
    <!-- Clasp centre -->
    <rect x="-12" y="0" width="24" height="20" rx="4" stroke-width="2.2"/>
    <!-- Clasp dot -->
    <circle cx="0" cy="10" r="4" stroke-width="2"/>
  </g>

  <!-- 2 ── SCISSORS (brand craft) x=650 ── -->
  <g transform="translate(700,310)" fill="none" stroke="#C9A96E" stroke-linecap="round" stroke-linejoin="round">
    <!-- Blade 1 -->
    <path d="M -10,-88 Q -6,-20 30,50" stroke-width="2.8"/>
    <!-- Blade 2 -->
    <path d="M 10,-88 Q 6,-20 -30,50" stroke-width="2.8"/>
    <!-- Pivot -->
    <circle cx="0" cy="-14" r="7" stroke-width="2.5"/>
    <!-- Handle 1 -->
    <path d="M 30,50 Q 48,72 38,88 Q 28,98 14,90 Q 4,82 10,65 Q 16,54 30,50 Z" stroke-width="2.5"/>
    <!-- Handle 2 -->
    <path d="M -30,50 Q -48,72 -38,88 Q -28,98 -14,90 Q -4,82 -10,65 Q -16,54 -30,50 Z" stroke-width="2.5"/>
  </g>

  <!-- 3 ── FIVE-POINT STAR (excellence/recognition) x=840 ── -->
  <g transform="translate(900,310)" fill="none" stroke="#C9A96E" stroke-width="2.8" stroke-linecap="round" stroke-linejoin="round">
    <path d="M 0,-88 L 21,-28 L 84,-28 L 34,12 L 52,72 L 0,38 L -52,72 L -34,12 L -84,-28 L -21,-28 Z"/>
    <!-- Inner glow ring -->
    <circle cx="0" cy="0" r="32" stroke-width="1.2" opacity="0.40"/>
  </g>

  <!-- 4 ── PEOPLE / TEAM (join the team) x=1030 ── -->
  <g transform="translate(1100,310)" fill="none" stroke="#C9A96E" stroke-linecap="round" stroke-linejoin="round">
    <!-- Left person -->
    <circle cx="-32" cy="-52" r="22" stroke-width="2.6"/>
    <path d="M -70,48 Q -68,10 -52,-4 Q -42,-12 -32,-12 Q -22,-12 -12,-4 Q 4,10 6,48" stroke-width="2.6"/>
    <!-- Right person -->
    <circle cx="32" cy="-52" r="22" stroke-width="2.6"/>
    <path d="M -6,48 Q -4,10 12,-4 Q 22,-12 32,-12 Q 42,-12 52,-4 Q 68,10 70,48" stroke-width="2.6"/>
    <!-- Ground line -->
    <line x1="-75" y1="48" x2="75" y2="48" stroke-width="1.8" opacity="0.55"/>
  </g>

  <!-- ── GOLD SPARKLES ──────────────────────────────── -->
  <g fill="#C9A96E">
    <path d="M 290,-80 L 294,-62 L 312,-58 L 294,-54 L 290,-36 L 286,-54 L 268,-58 L 286,-62 Z" opacity="0.70"/>
    <path d="M 1460,-90 L 1464,-72 L 1482,-68 L 1464,-64 L 1460,-46 L 1456,-64 L 1438,-68 L 1456,-72 Z" opacity="0.65"/>
    <path d="M 1520, 80 L 1523, 90 L 1533, 93 L 1523, 96 L 1520,106 L 1517, 96 L 1507, 93 L 1517, 90 Z" opacity="0.50"/>
    <path d="M 250, 550 L 254, 564 L 268, 568 L 254, 572 L 250, 586 L 246, 572 L 232, 568 L 246, 564 Z" opacity="0.55"/>
    <path d="M 1440, 600 L 1443, 612 L 1455, 615 L 1443, 618 L 1440, 630 L 1437, 618 L 1425, 615 L 1437, 612 Z" opacity="0.50"/>
    <path d="M 380, 540 L 382, 548 L 390, 550 L 382, 552 L 380, 560 L 378, 552 L 370, 550 L 378, 548 Z" opacity="0.40"/>
    <path d="M 1200,  60 L 1202,  68 L 1210,  70 L 1202,  72 L 1200,  80 L 1198,  72 L 1190,  70 L 1198,  68 Z" opacity="0.42"/>
  </g>
  <g fill="#C8C4BC">
    <path d="M 340,-50 L 342,-44 L 348,-42 L 342,-40 L 340,-34 L 338,-40 L 332,-42 L 338,-44 Z" opacity="0.35"/>
    <path d="M 1400, 50 L 1402, 56 L 1408, 58 L 1402, 60 L 1400, 66 L 1398, 60 L 1392, 58 L 1398, 56 Z" opacity="0.30"/>
    <path d="M 230, 450 L 232, 457 L 239, 459 L 232, 461 L 230, 468 L 228, 461 L 221, 459 L 228, 457 Z" opacity="0.28"/>
    <path d="M 1520, 350 L 1522, 357 L 1529, 359 L 1522, 361 L 1520, 368 L 1518, 361 L 1511, 359 L 1518, 357 Z" opacity="0.28"/>
  </g>

  <!-- ── VIGNETTE ─────────────────────────────────────── -->
  <rect x="-308" y="-124" width="508"  height="829" fill="url(#cVigL)"/>
  <rect x="1240" y="-124" width="509"  height="829" fill="url(#cVigR)"/>
  <rect x="-308" y="370"  width="2057" height="335" fill="url(#cVigB)"/>
</svg>
