<svg xmlns="http://www.w3.org/2000/svg" viewBox="0 0 1440 580" preserveAspectRatio="xMidYMid slice" width="1440" height="580" role="img" aria-label="Luxury returns inspection tray with sealed premium hair">
  <defs>
    <linearGradient id="bg" x1="0" y1="0" x2="1" y2="1">
      <stop offset="0%" stop-color="#120F0C"/>
      <stop offset="36%" stop-color="#2E2924"/>
      <stop offset="68%" stop-color="#625B52"/>
      <stop offset="100%" stop-color="#1B1713"/>
    </linearGradient>
    <radialGradient id="key" cx="76%" cy="32%" r="52%">
      <stop offset="0%" stop-color="#B8AA96" stop-opacity="0.45"/>
      <stop offset="58%" stop-color="#6C6358" stop-opacity="0.24"/>
      <stop offset="100%" stop-color="#15110D" stop-opacity="0"/>
    </radialGradient>
    <linearGradient id="leftFade" x1="0" y1="0" x2="1" y2="0">
      <stop offset="0%" stop-color="#0B0806" stop-opacity="0.9"/>
      <stop offset="45%" stop-color="#120F0C" stop-opacity="0.42"/>
      <stop offset="100%" stop-color="#120F0C" stop-opacity="0"/>
    </linearGradient>
    <linearGradient id="gold" x1="0" y1="0" x2="1" y2="1">
      <stop offset="0%" stop-color="#9C702A"/>
      <stop offset="45%" stop-color="#D5AE64"/>
      <stop offset="100%" stop-color="#936724"/>
    </linearGradient>
    <linearGradient id="cream" x1="0" y1="0" x2="1" y2="1">
      <stop offset="0%" stop-color="#FFF4DE"/>
      <stop offset="100%" stop-color="#DCC6A2"/>
    </linearGradient>
    <linearGradient id="tray" x1="0" y1="0" x2="1" y2="1">
      <stop offset="0%" stop-color="#211B16"/>
      <stop offset="58%" stop-color="#14100D"/>
      <stop offset="100%" stop-color="#33291F"/>
    </linearGradient>
    <linearGradient id="velvet" x1="0" y1="0" x2="1" y2="1">
      <stop offset="0%" stop-color="#2B211A"/>
      <stop offset="100%" stop-color="#0F0B08"/>
    </linearGradient>
    <linearGradient id="hair" x1="0" y1="0" x2="1" y2="0">
      <stop offset="0%" stop-color="#120C08"/>
      <stop offset="45%" stop-color="#4B3020"/>
      <stop offset="100%" stop-color="#A87945"/>
    </linearGradient>
    <filter id="shadow" x="-24%" y="-24%" width="150%" height="160%">
      <feDropShadow dx="0" dy="24" stdDeviation="24" flood-color="#050403" flood-opacity="0.42"/>
    </filter>
    <filter id="soft" x="-25%" y="-25%" width="150%" height="150%">
      <feGaussianBlur stdDeviation="2"/>
    </filter>
  </defs>

  <rect width="1440" height="580" fill="url(#bg)"/>
  <rect width="1440" height="580" fill="url(#key)"/>

  <g opacity="0.28" fill="none" stroke="#C9A96E" stroke-linecap="round">
    <path d="M-44 458 C214 396 420 426 636 350 S994 218 1468 240" stroke-width="3"/>
    <path d="M244 520 C480 464 680 448 872 380 S1158 300 1456 324" stroke-width="1.6"/>
    <path d="M130 166 C270 122 448 140 594 212" stroke-width="1" stroke-dasharray="14 25"/>
  </g>

  <g transform="translate(755 88)" filter="url(#shadow)">
    <path d="M170 430 C106 392 68 326 68 250 C68 136 160 44 274 44 C388 44 480 136 480 250 C480 328 438 398 374 434" fill="none" stroke="#B68A45" stroke-width="7" opacity="0.74"/>
    <path d="M410 408 L376 432 L392 390" fill="none" stroke="#B68A45" stroke-width="7" stroke-linecap="round" stroke-linejoin="round" opacity="0.74"/>
    <path d="M198 84 C244 58 316 58 362 86" fill="none" stroke="#F1D18A" stroke-width="2" opacity="0.35"/>

    <g transform="translate(40 300)">
      <ellipse cx="260" cy="124" rx="280" ry="50" fill="#090604" opacity="0.34" filter="url(#soft)"/>
      <path d="M26 58 C88 10 420 10 494 58 L438 126 C356 160 160 160 82 126 Z" fill="url(#tray)"/>
      <path d="M82 68 C154 34 360 34 438 68 C360 102 154 102 82 68 Z" fill="url(#velvet)"/>
      <path d="M80 68 C152 34 362 34 440 68" fill="none" stroke="#D0A756" stroke-width="3" opacity="0.62"/>
      <path d="M82 126 C160 160 356 160 438 126" fill="none" stroke="#8B6A32" stroke-width="2" opacity="0.55"/>
    </g>

    <g transform="translate(120 262)">
      <path d="M22 74 C58 22 116 2 178 18 C234 32 268 70 290 126" fill="none" stroke="url(#hair)" stroke-width="18" stroke-linecap="round"/>
      <path d="M52 90 C86 52 132 38 180 48 C224 58 254 86 276 132" fill="none" stroke="#B4874E" stroke-width="5" stroke-linecap="round" opacity="0.78"/>
      <path d="M84 104 C118 82 154 76 190 88 C224 100 244 124 258 154" fill="none" stroke="#1D130D" stroke-width="7" stroke-linecap="round"/>
      <rect x="12" y="32" width="300" height="34" rx="2" fill="#F8EAD0" opacity="0.94"/>
      <text x="66" y="54" font-family="Montserrat, Arial, sans-serif" font-size="9" letter-spacing="2.4" fill="#8B6A32">SEALED PREMIUM HAIR</text>
    </g>

    <g transform="translate(274 128) rotate(7)">
      <rect x="0" y="0" width="178" height="224" rx="4" fill="url(#cream)"/>
      <rect x="18" y="20" width="142" height="24" fill="#2B2620"/>
      <text x="38" y="36" font-family="Montserrat, Arial, sans-serif" font-size="9" letter-spacing="2" fill="#F6F1E8">RETURN CARE</text>
      <text x="22" y="76" font-family="Cormorant Garamond, Georgia, serif" font-size="27" fill="#2B2620">Inspection</text>
      <line x1="22" y1="98" x2="140" y2="98" stroke="#B68A45" stroke-width="1.4"/>
      <g font-family="Montserrat, Arial, sans-serif" font-size="10" fill="#6B5C4E">
        <text x="48" y="126">Sealed</text>
        <text x="48" y="154">Unused</text>
        <text x="48" y="182">Approved</text>
      </g>
      <g fill="none" stroke="#B68A45" stroke-width="2.4" stroke-linecap="round" stroke-linejoin="round">
        <path d="M24 121 L31 128 L42 114"/>
        <path d="M24 149 L31 156 L42 142"/>
        <path d="M24 177 L31 184 L42 170"/>
      </g>
    </g>

    <g transform="translate(116 122) rotate(-8)">
      <path d="M0 40 L142 0 L178 126 L36 166 Z" fill="#211A14"/>
      <path d="M18 52 L130 20 L154 108 L42 140 Z" fill="#F5E6CC"/>
      <path d="M18 52 L84 92 L130 20" fill="none" stroke="#B68A45" stroke-width="2" opacity="0.55"/>
      <text x="52" y="112" font-family="Montserrat, Arial, sans-serif" font-size="9" letter-spacing="1.8" fill="#8B6A32">RETURN REQUEST</text>
    </g>

    <g transform="translate(126 62)" opacity="0.58">
      <line x1="0" y1="0" x2="174" y2="0" stroke="#C9A96E" stroke-width="1"/>
      <line x1="0" y1="20" x2="248" y2="20" stroke="#C9A96E" stroke-width="1"/>
      <line x1="0" y1="40" x2="306" y2="40" stroke="#C9A96E" stroke-width="1"/>
    </g>
  </g>

  <rect width="1440" height="580" fill="url(#leftFade)"/>
  <rect width="1440" height="580" fill="#090604" opacity="0.07"/>
</svg>
