<svg xmlns="http://www.w3.org/2000/svg" viewBox="0 0 1440 580" width="1440" height="580" preserveAspectRatio="xMidYMid slice">
  <defs>
    <linearGradient id="bg" x1="0" y1="0" x2="1" y2="0">
      <stop offset="0%" stop-color="#424040"/>
      <stop offset="28%" stop-color="#555250"/>
      <stop offset="54%" stop-color="#5E5A56"/>
      <stop offset="78%" stop-color="#575350"/>
      <stop offset="100%" stop-color="#4A4744"/>
    </linearGradient>
    <radialGradient id="key" cx="74%" cy="18%" r="58%">
      <stop offset="0%" stop-color="#807060" stop-opacity="0.56"/>
      <stop offset="100%" stop-color="#5E5A56" stop-opacity="0"/>
    </radialGradient>
    <linearGradient id="topShade" x1="0" y1="0" x2="0" y2="1">
      <stop offset="0%" stop-color="#1C1810" stop-opacity="0.52"/>
      <stop offset="40%" stop-color="#1C1810" stop-opacity="0"/>
      <stop offset="100%" stop-color="#100C08" stop-opacity="0.36"/>
    </linearGradient>
    <linearGradient id="floor" x1="0" y1="0" x2="0" y2="1">
      <stop offset="0%" stop-color="#363230"/>
      <stop offset="100%" stop-color="#242018"/>
    </linearGradient>
    <linearGradient id="gold" x1="0" y1="0" x2="1" y2="1">
      <stop offset="0%" stop-color="#8A6418"/>
      <stop offset="30%" stop-color="#C9A96E"/>
      <stop offset="58%" stop-color="#E8CB85"/>
      <stop offset="82%" stop-color="#C9A040"/>
      <stop offset="100%" stop-color="#8A6418"/>
    </linearGradient>
    <linearGradient id="steel" x1="0" y1="0" x2="1" y2="1">
      <stop offset="0%" stop-color="#F2F2F0"/>
      <stop offset="45%" stop-color="#96999C"/>
      <stop offset="100%" stop-color="#4A4C4E"/>
    </linearGradient>
    <linearGradient id="hair" x1="0" y1="0" x2="1" y2="1">
      <stop offset="0%" stop-color="#161410"/>
      <stop offset="35%" stop-color="#4A4A46"/>
      <stop offset="70%" stop-color="#76746F"/>
      <stop offset="100%" stop-color="#1F1E1C"/>
    </linearGradient>
    <filter id="softShadow" x="-25%" y="-25%" width="150%" height="150%">
      <feDropShadow dx="0" dy="18" stdDeviation="18" flood-color="#000" flood-opacity="0.35"/>
    </filter>
    <filter id="cardShadow" x="-25%" y="-25%" width="150%" height="150%">
      <feDropShadow dx="0" dy="14" stdDeviation="18" flood-color="#000" flood-opacity="0.3"/>
    </filter>
  </defs>

  <rect width="1440" height="580" fill="url(#bg)"/>
  <rect width="1440" height="580" fill="url(#key)"/>
  <rect y="430" width="1440" height="150" fill="url(#floor)"/>
  <rect y="428" width="1440" height="4" fill="#14100C" opacity="0.36"/>
  <rect width="1440" height="580" fill="url(#topShade)"/>

  <g opacity="0.22">
    <path d="M565 92 C720 46 870 46 1035 91" fill="none" stroke="#C9A96E" stroke-width="1"/>
    <path d="M590 482 C760 448 980 454 1238 493" fill="none" stroke="#C9A96E" stroke-width="1"/>
    <circle cx="620" cy="92" r="3" fill="#C9A96E"/>
    <circle cx="1188" cy="492" r="3" fill="#C9A96E"/>
  </g>

  <g transform="translate(580 116)" filter="url(#cardShadow)">
    <rect x="0" y="0" width="760" height="316" rx="18" fill="#0E0C09" opacity="0.26"/>
    <rect x="18" y="18" width="158" height="280" rx="8" fill="#F7F5F0" opacity="0.96"/>
    <rect x="200" y="18" width="158" height="280" rx="8" fill="#F7F5F0" opacity="0.96"/>
    <rect x="382" y="18" width="158" height="280" rx="8" fill="#F7F5F0" opacity="0.96"/>
    <rect x="564" y="18" width="158" height="280" rx="8" fill="#F7F5F0" opacity="0.96"/>
    <path d="M188 26 V290 M370 26 V290 M552 26 V290" stroke="#0B0A08" stroke-width="5" opacity="0.9"/>

    <g transform="translate(44 62)">
      <path d="M28 116 L94 24" stroke="url(#steel)" stroke-width="10" stroke-linecap="round"/>
      <path d="M100 116 L38 24" stroke="url(#steel)" stroke-width="10" stroke-linecap="round"/>
      <circle cx="26" cy="124" r="23" fill="none" stroke="url(#gold)" stroke-width="8"/>
      <circle cx="100" cy="124" r="23" fill="none" stroke="url(#gold)" stroke-width="8"/>
      <circle cx="64" cy="76" r="7" fill="url(#gold)" stroke="#4A3A18" stroke-width="2"/>
      <path d="M78 126 Q95 142 118 146" fill="none" stroke="url(#gold)" stroke-width="8" stroke-linecap="round"/>
    </g>

    <g transform="translate(226 48)" filter="url(#softShadow)">
      <path d="M72 0 C30 44 34 88 78 118 C116 146 108 182 54 218 C86 204 134 172 114 126 C102 98 62 91 62 56 C62 36 76 16 96 0 C88 6 80 12 72 0Z" fill="url(#hair)"/>
      <path d="M86 4 C60 58 128 92 106 146 C96 170 70 190 42 212" fill="none" stroke="#C9A96E" stroke-width="4" opacity="0.78"/>
      <path d="M50 42 C16 74 14 130 52 154" fill="none" stroke="#C9A96E" stroke-width="2" opacity="0.48"/>
      <circle cx="34" cy="94" r="3" fill="#C9A96E"/>
      <circle cx="120" cy="114" r="3" fill="#C9A96E"/>
    </g>

    <g transform="translate(418 50)">
      <rect x="44" y="34" width="56" height="150" rx="25" fill="#E8E0D2" stroke="#4A4A46" stroke-width="4"/>
      <rect x="56" y="176" width="34" height="64" rx="12" fill="#C9A96E"/>
      <rect x="60" y="210" width="26" height="78" rx="8" fill="#B6B6B4" stroke="#4A4A46" stroke-width="3"/>
      <circle cx="73" cy="268" r="6" fill="none" stroke="#4A4A46" stroke-width="3"/>
      <g stroke="#4A4A46" stroke-width="3" stroke-linecap="round">
        <path d="M44 48 H12"/><path d="M44 62 H8"/><path d="M44 76 H12"/><path d="M44 90 H8"/><path d="M44 104 H12"/><path d="M44 118 H8"/><path d="M44 132 H12"/><path d="M44 146 H8"/>
        <path d="M100 48 H132"/><path d="M100 62 H136"/><path d="M100 76 H132"/><path d="M100 90 H136"/><path d="M100 104 H132"/><path d="M100 118 H136"/><path d="M100 132 H132"/><path d="M100 146 H136"/>
      </g>
      <path d="M20 36 C64 0 104 4 126 34" fill="none" stroke="#C9A96E" stroke-width="4" opacity="0.8"/>
    </g>

    <g transform="translate(594 54)">
      <rect x="10" y="0" width="112" height="160" fill="#F7F5F0" stroke="#5E5A56" stroke-width="4"/>
      <path d="M22 20 Q22 10 32 10 H100 Q110 10 110 20" fill="none" stroke="#C9A96E" stroke-width="3"/>
      <text x="66" y="62" text-anchor="middle" font-family="Georgia,serif" font-size="22" font-weight="700" fill="#C9A96E">CERTIFIED</text>
      <text x="66" y="90" text-anchor="middle" font-family="Georgia,serif" font-size="22" font-weight="700" fill="#C9A96E">EXPERT</text>
      <line x1="34" y1="112" x2="98" y2="112" stroke="#5E5A56" stroke-width="3"/>
      <line x1="34" y1="124" x2="80" y2="124" stroke="#5E5A56" stroke-width="2"/>
      <circle cx="100" cy="144" r="24" fill="url(#gold)"/>
      <circle cx="100" cy="144" r="16" fill="none" stroke="#F7F5F0" stroke-width="3" opacity="0.7"/>
      <path d="M88 164 L78 204 L100 184 L122 204 L112 164" fill="url(#gold)"/>
    </g>
  </g>
</svg>
