<svg xmlns="http://www.w3.org/2000/svg" viewBox="-308 -124 2057 829" preserveAspectRatio="xMidYMid slice" width="1440" height="580">
  <defs>
    <!-- Wholesale exact background -->
    <linearGradient id="bg" x1="0" y1="0" x2="1" y2="0">
      <stop offset="0%"   stop-color="#424040"/>
      <stop offset="28%"  stop-color="#555250"/>
      <stop offset="54%"  stop-color="#5E5A56"/>
      <stop offset="78%"  stop-color="#575350"/>
      <stop offset="100%" stop-color="#4A4744"/>
    </linearGradient>
    <linearGradient id="topS" x1="0" y1="0" x2="0" y2="1">
      <stop offset="0%"   stop-color="#1C1810" stop-opacity="0.52"/>
      <stop offset="38%"  stop-color="#1C1810" stop-opacity="0"/>
      <stop offset="100%" stop-color="#100C08" stop-opacity="0.38"/>
    </linearGradient>
    <radialGradient id="keyL" cx="72%" cy="14%" r="55%">
      <stop offset="0%"   stop-color="#807060" stop-opacity="0.58"/>
      <stop offset="100%" stop-color="#5E5A56" stop-opacity="0"/>
    </radialGradient>
    <linearGradient id="flr" x1="0" y1="0" x2="0" y2="1">
      <stop offset="0%"   stop-color="#363230"/>
      <stop offset="100%" stop-color="#242018"/>
    </linearGradient>
    <!-- Wholesale vignettes exact -->
    <linearGradient id="vigL" x1="0" y1="0" x2="1" y2="0">
      <stop offset="0%"   stop-color="#C8C8C8" stop-opacity="0.35"/>
      <stop offset="100%" stop-color="#C8C8C8" stop-opacity="0"/>
    </linearGradient>
    <linearGradient id="vigR" x1="0" y1="0" x2="1" y2="0">
      <stop offset="0%"   stop-color="#C8C8C8" stop-opacity="0"/>
      <stop offset="100%" stop-color="#C8C8C8" stop-opacity="0.35"/>
    </linearGradient>
    <linearGradient id="vigB" x1="0" y1="0" x2="0" y2="1">
      <stop offset="0%"   stop-color="#D0D0D0" stop-opacity="0"/>
      <stop offset="100%" stop-color="#D0D0D0" stop-opacity="0.30"/>
    </linearGradient>
    <linearGradient id="vigT" x1="0" y1="0" x2="0" y2="1">
      <stop offset="0%"   stop-color="#1C1810" stop-opacity="0.42"/>
      <stop offset="28%"  stop-color="#1C1810" stop-opacity="0"/>
    </linearGradient>
    <!-- Tile wall gradient -->
    <linearGradient id="wallT" x1="0" y1="0" x2="0" y2="1">
      <stop offset="0%"   stop-color="#6A6460" stop-opacity="0.55"/>
      <stop offset="100%" stop-color="#4A4440" stop-opacity="0.20"/>
    </linearGradient>
    <!-- Basin porcelain -->
    <linearGradient id="basin" x1="0" y1="0" x2="0" y2="1">
      <stop offset="0%"   stop-color="#E8E4DC"/>
      <stop offset="100%" stop-color="#C8C2B6"/>
    </linearGradient>
    <!-- Chair upholstery -->
    <linearGradient id="chair" x1="0" y1="0" x2="0" y2="1">
      <stop offset="0%"   stop-color="#3A2E20"/>
      <stop offset="100%" stop-color="#241C12"/>
    </linearGradient>
    <filter id="dropshadow" x="-10%" y="-10%" width="120%" height="130%">
      <feDropShadow dx="0" dy="4" stdDeviation="8" flood-color="#0C0A06" flood-opacity="0.45"/>
    </filter>
    <clipPath id="sc">
      <rect x="-308" y="-124" width="2057" height="829"/>
    </clipPath>
  </defs>

  <g clip-path="url(#sc)">

  <!-- ── BACKGROUND ── -->
  <rect x="-308" y="-124" width="2057" height="829" fill="url(#bg)"/>
  <rect x="-308" y="-124" width="2057" height="829" fill="url(#keyL)"/>
  <rect x="-308" y="-124" width="2057" height="829" fill="url(#topS)"/>

  <!-- Tile wall backdrop behind scene -->
  <rect x="540" y="-124" width="900" height="600" fill="url(#wallT)" rx="0"/>
  <!-- Horizontal tile grout lines -->
  <line x1="540" y1="0"   x2="1440" y2="0"   stroke="#3A3830" stroke-width="1.2" opacity="0.45"/>
  <line x1="540" y1="80"  x2="1440" y2="80"  stroke="#3A3830" stroke-width="1.2" opacity="0.45"/>
  <line x1="540" y1="160" x2="1440" y2="160" stroke="#3A3830" stroke-width="1.2" opacity="0.45"/>
  <line x1="540" y1="240" x2="1440" y2="240" stroke="#3A3830" stroke-width="1.2" opacity="0.45"/>
  <line x1="540" y1="320" x2="1440" y2="320" stroke="#3A3830" stroke-width="1.2" opacity="0.45"/>
  <line x1="540" y1="400" x2="1440" y2="400" stroke="#3A3830" stroke-width="1.2" opacity="0.45"/>
  <!-- Vertical grout -->
  <line x1="620"  y1="-124" x2="620"  y2="480" stroke="#3A3830" stroke-width="1"   opacity="0.35"/>
  <line x1="780"  y1="-124" x2="780"  y2="480" stroke="#3A3830" stroke-width="1"   opacity="0.35"/>
  <line x1="940"  y1="-124" x2="940"  y2="480" stroke="#3A3830" stroke-width="1"   opacity="0.35"/>
  <line x1="1100" y1="-124" x2="1100" y2="480" stroke="#3A3830" stroke-width="1"   opacity="0.35"/>
  <line x1="1260" y1="-124" x2="1260" y2="480" stroke="#3A3830" stroke-width="1"   opacity="0.35"/>
  <line x1="1420" y1="-124" x2="1420" y2="480" stroke="#3A3830" stroke-width="1"   opacity="0.35"/>

  <!-- Floor -->
  <rect x="-308" y="520" width="2057" height="185" fill="url(#flr)"/>
  <rect x="-308" y="517" width="2057" height="6" fill="#1C1810"/>

  <!-- Skirting board -->
  <rect x="540" y="505" width="900" height="18" rx="2" fill="#2A2620"/>

  <!-- ── PRODUCT SHELF (right wall) ── -->
  <rect x="1280" y="180" width="5" height="100" rx="2" fill="#2A2418"/>
  <rect x="1280" y="180" width="160" height="10" rx="3" fill="#C9A96E"/>
  <rect x="1280" y="188" width="160" height="4"  rx="1" fill="#A88A4E"/>
  <!-- Bottles on shelf — flat cartoon style -->
  <!-- Bottle 1: dark pump bottle -->
  <rect x="1290" y="110" width="26" height="70" rx="6" fill="#2A2820"/>
  <rect x="1295" y="100" width="16" height="14" rx="4" fill="#2A2820"/>
  <rect x="1300" y="90"  width="6"  height="12" rx="2" fill="#3A3830"/>
  <rect x="1291" y="130" width="24" height="8"  rx="2" fill="#C9A96E" opacity="0.5"/>
  <!-- Bottle 2: gold/amber bottle -->
  <rect x="1326" y="118" width="24" height="62" rx="5" fill="#C9A96E"/>
  <rect x="1329" y="108" width="18" height="12" rx="4" fill="#B89A5A"/>
  <rect x="1334" y="98"  width="8"  height="12" rx="2" fill="#A88A4A"/>
  <rect x="1327" y="138" width="22" height="6"  rx="2" fill="#FFFFFF" opacity="0.25"/>
  <!-- Bottle 3: cream/white bottle -->
  <rect x="1360" y="114" width="22" height="66" rx="5" fill="#E8E2D8"/>
  <rect x="1362" y="104" width="18" height="12" rx="4" fill="#D4CEC4"/>
  <rect x="1367" y="94"  width="8"  height="12" rx="2" fill="#C4BEB4"/>
  <rect x="1361" y="134" width="20" height="6"  rx="2" fill="#C9A96E" opacity="0.6"/>
  <!-- Bottle 4: small dark -->
  <rect x="1392" y="126" width="20" height="54" rx="5" fill="#3A3430"/>
  <rect x="1394" y="116" width="16" height="12" rx="4" fill="#2A2A26"/>
  <rect x="1398" y="107" width="8"  height="11" rx="2" fill="#2A2A26"/>

  <!-- ── BACKWASH UNIT / SALON CHAIR ── -->
  <!-- Chair base + pedestal (flat shapes) -->
  <rect x="720" y="460" width="320" height="60" rx="8" fill="#1A1610"/>
  <rect x="800" y="400" width="160" height="65" rx="6" fill="#201C14"/>
  <!-- Chair seat + recline -->
  <path d="M680 310 Q675 280 680 250 Q685 225 700 218 L1000 218 Q1014 225 1018 250 Q1022 278 1016 310 Q1014 340 1000 360 L700 360 Q686 342 680 310 Z" fill="url(#chair)" rx="10"/>
  <path d="M680 310 Q675 280 680 250 Q685 225 700 218 L1000 218 Q1014 225 1018 250" stroke="#3A3020" stroke-width="2" fill="none" opacity="0.5"/>
  <!-- Chair headrest / neck support -->
  <rect x="790" y="188" width="180" height="36" rx="12" fill="#2E2618"/>
  <!-- Chair armrests -->
  <rect x="670" y="295" width="34" height="70" rx="8" fill="#2A2218"/>
  <rect x="1056" y="295" width="34" height="70" rx="8" fill="#2A2218"/>

  <!-- ── BACKWASH BASIN ── -->
  <!-- Basin shell -->
  <path d="M700 218 Q695 195 700 175 Q705 155 720 148 L1040 148 Q1055 155 1060 175 Q1065 195 1060 218 L700 218 Z" fill="#D4CEC4" stroke="#B8B2A8" stroke-width="2"/>
  <!-- Basin inner bowl -->
  <ellipse cx="880" cy="186" rx="155" ry="36" fill="#C8C2B6"/>
  <ellipse cx="880" cy="190" rx="140" ry="28" fill="#2A2620"/>
  <!-- Water surface in basin -->
  <ellipse cx="880" cy="193" rx="120" ry="18" fill="#6A9AB0" opacity="0.30"/>
  <path d="M770 192 Q800 188 830 193 Q860 198 890 193 Q920 188 950 193 Q970 196 990 193" stroke="#8AB8CC" stroke-width="1.5" fill="none" opacity="0.40"/>
  <!-- Basin rim highlight -->
  <path d="M720 155 L760 155" stroke="#FFFFFF" stroke-width="2" opacity="0.30" stroke-linecap="round"/>
  <!-- Drain -->
  <circle cx="880" cy="196" r="10" fill="#1A1610"/>
  <circle cx="880" cy="196" r="6"  fill="#141210"/>
  <!-- Showerhead hose -->
  <path d="M1070 80 Q1100 100 1096 152 Q1092 185 1072 204" stroke="#888078" stroke-width="8" fill="none" stroke-linecap="round"/>
  <rect x="1058" y="198" width="24" height="18" rx="5" fill="#787068"/>
  <!-- Water drops -->
  <path d="M1065 220 Q1062 232 1060 246" stroke="#8AB8CC" stroke-width="3" fill="none" opacity="0.50" stroke-dasharray="4 4" stroke-linecap="round"/>

  <!-- ── CLIENT — reclined, head in basin ── -->
  <!-- Client body / cape (flat rectangle, angled) -->
  <path d="M680 360 Q670 380 668 420 Q666 460 670 500 L900 500 Q908 460 906 420 Q904 382 894 360 Z" fill="#E8E4DC"/>
  <!-- Cape collar -->
  <path d="M730 360 Q760 348 800 345 Q840 342 874 348 Q894 354 904 364" stroke="#D4CEC4" stroke-width="3" fill="none"/>
  <!-- Client shoulders under cape -->
  <ellipse cx="730" cy="355" rx="44" ry="22" fill="#D4956A" opacity="0.6"/>
  <ellipse cx="858" cy="352" rx="44" ry="22" fill="#D4956A" opacity="0.6"/>
  <!-- Client neck -->
  <rect x="812" y="280" width="38" height="76" rx="14" fill="#D4956A"/>
  <!-- Client head — oval, tilted back into basin -->
  <ellipse cx="831" cy="244" rx="72" ry="68" fill="#D4956A" transform="rotate(15 831 244)"/>
  <!-- Head outline -->
  <ellipse cx="831" cy="244" rx="72" ry="68" fill="none" stroke="#B87848" stroke-width="1.5" opacity="0.25" transform="rotate(15 831 244)"/>
  <!-- Client hair — flat dark shape in basin -->
  <path d="M768 230 Q755 248 752 272 Q749 296 754 318 Q760 338 775 350 Q798 362 825 368 Q852 372 874 362 Q895 350 900 326 Q906 300 900 275 Q895 252 880 236 Q862 222 840 218 Q816 215 792 222 Q778 226 768 230 Z" fill="#281808"/>
  <!-- Hair wet sheen -->
  <path d="M778 238 Q768 260 768 290 Q768 316 778 336" stroke="#C9A96E" stroke-width="2" fill="none" opacity="0.18" stroke-linecap="round"/>
  <!-- Foam / lather blobs -->
  <circle cx="820" cy="290" r="22" fill="#FFFFFF" opacity="0.18"/>
  <circle cx="848" cy="278" r="16" fill="#FFFFFF" opacity="0.14"/>
  <circle cx="800" cy="278" r="14" fill="#FFFFFF" opacity="0.12"/>
  <circle cx="856" cy="298" r="12" fill="#FFFFFF" opacity="0.13"/>
  <circle cx="836" cy="264" r="10" fill="#FFFFFF" opacity="0.10"/>
  <!-- Client face — eyes closed, relaxed, seen from slightly below -->
  <!-- Nose -->
  <path d="M822 255 Q829 262 836 260" stroke="#A87040" stroke-width="2.5" fill="none" stroke-linecap="round"/>
  <!-- Closed eyes (relaxed) -->
  <path d="M798 238 Q808 232 820 236" stroke="#3A2010" stroke-width="2.8" fill="none" stroke-linecap="round"/>
  <path d="M836 232 Q847 226 858 230" stroke="#3A2010" stroke-width="2.8" fill="none" stroke-linecap="round"/>
  <!-- Eyebrow hints -->
  <path d="M796 230 Q807 224 820 228" stroke="#2A1808" stroke-width="2" fill="none" stroke-linecap="round" opacity="0.6"/>
  <path d="M834 224 Q845 218 858 222" stroke="#2A1808" stroke-width="2" fill="none" stroke-linecap="round" opacity="0.6"/>
  <!-- Soft smile -->
  <path d="M810 266 Q829 273 848 267" stroke="#A87040" stroke-width="2.2" fill="none" stroke-linecap="round"/>
  <!-- Ear -->
  <ellipse cx="882" cy="240" rx="10" ry="15" fill="#C48858" transform="rotate(15 882 240)"/>

  <!-- ── STYLIST — standing, leaning over, cartoon flat style ── -->
  <!-- Legs / trousers -->
  <rect x="975" y="400" width="54" height="110" rx="10" fill="#2A2620"/>
  <rect x="1055" y="400" width="54" height="110" rx="10" fill="#2A2620"/>
  <!-- Shoes -->
  <ellipse cx="1002" cy="516" rx="34" ry="12" fill="#1A1610"/>
  <ellipse cx="1082" cy="516" rx="34" ry="12" fill="#1A1610"/>
  <!-- Torso / white apron body -->
  <path d="M948 220 Q940 195 945 165 Q950 138 970 122 Q994 108 1042 106 Q1090 108 1112 122 Q1130 138 1134 165 Q1138 195 1130 220 Q1112 248 1082 260 Q1060 268 1042 268 Q1022 268 998 258 Q968 246 948 220 Z" fill="#F0EAE0"/>
  <!-- Apron bib -->
  <path d="M990 130 Q996 112 1042 108 Q1088 112 1094 130 L1090 210 Q1042 222 994 210 Z" fill="#E8E2D8"/>
  <!-- Apron string bow at waist -->
  <path d="M970 245 Q990 240 1010 248 Q1042 254 1074 248 Q1094 240 1114 246" stroke="#D4CEC4" stroke-width="3" fill="none" stroke-linecap="round"/>
  <!-- Apron pocket -->
  <rect x="1018" y="215" width="48" height="34" rx="4" fill="none" stroke="#D4CEC4" stroke-width="2"/>
  <!-- Gold name badge -->
  <rect x="1022" y="154" width="36" height="22" rx="4" fill="#C9A96E"/>
  <rect x="1025" y="158" width="30" height="4" rx="1" fill="#FFFFFF" opacity="0.5"/>
  <rect x="1025" y="166" width="22" height="3" rx="1" fill="#FFFFFF" opacity="0.35"/>
  <!-- Stylist neck -->
  <rect x="1024" y="88" width="36" height="40" rx="12" fill="#D4956A"/>
  <!-- Stylist head — round, cartoon style -->
  <ellipse cx="1042" cy="60" rx="54" ry="56" fill="#D4956A"/>
  <!-- Head outline subtle -->
  <ellipse cx="1042" cy="60" rx="54" ry="56" fill="none" stroke="#B87848" stroke-width="1.5" opacity="0.25"/>
  <!-- Stylist hair — bun / updo, flat dark shape -->
  <path d="M990 36 Q985 10 993 -10 Q1004 -30 1022 -38 Q1038 -44 1054 -40 Q1072 -34 1080 -18 Q1090 2 1088 28 Q1076 18 1058 14 Q1042 10 1026 14 Q1010 20 990 36 Z" fill="#281808"/>
  <!-- Bun knot at back top -->
  <circle cx="1074" cy="8" r="20" fill="#201408"/>
  <circle cx="1074" cy="8" r="14" fill="#281808"/>
  <!-- Bun highlight -->
  <path d="M1064 0 Q1074 -4 1084 2" stroke="#5A3C18" stroke-width="2" fill="none" opacity="0.5" stroke-linecap="round"/>
  <!-- Ear (left) -->
  <ellipse cx="990" cy="62" rx="10" ry="14" fill="#C48858"/>
  <ellipse cx="990" cy="62" rx="6"  ry="9"  fill="#B87848" opacity="0.5"/>
  <!-- Earring -->
  <circle cx="990" cy="74" r="4" fill="#C9A96E"/>
  <!-- Stylist face — calm, focused downward look -->
  <!-- Eyes -->
  <ellipse cx="1020" cy="52" rx="9" ry="10" fill="#FFFFFF"/>
  <ellipse cx="1062" cy="50" rx="9" ry="10" fill="#FFFFFF"/>
  <ellipse cx="1022" cy="54" rx="6" ry="7"  fill="#3A2010"/>
  <ellipse cx="1064" cy="52" rx="6" ry="7"  fill="#3A2010"/>
  <ellipse cx="1024" cy="55" rx="3" ry="3.5" fill="#1A0E08"/>
  <ellipse cx="1066" cy="53" rx="3" ry="3.5" fill="#1A0E08"/>
  <!-- Eye shine -->
  <circle cx="1026" cy="52" r="2" fill="#FFFFFF"/>
  <circle cx="1068" cy="50" r="2" fill="#FFFFFF"/>
  <!-- Eyelashes top -->
  <path d="M1012 44 Q1020 38 1030 42" stroke="#1A0E08" stroke-width="2.5" fill="none" stroke-linecap="round"/>
  <path d="M1054 42 Q1062 36 1072 40" stroke="#1A0E08" stroke-width="2.5" fill="none" stroke-linecap="round"/>
  <!-- Eyebrows — slightly furrowed in concentration -->
  <path d="M1009 38 Q1019 32 1032 36" stroke="#281808" stroke-width="3.5" fill="none" stroke-linecap="round"/>
  <path d="M1052 36 Q1062 30 1075 34" stroke="#281808" stroke-width="3.5" fill="none" stroke-linecap="round"/>
  <!-- Nose -->
  <path d="M1034 68 Q1042 76 1050 74 Q1054 72 1056 68" stroke="#A87040" stroke-width="2.5" fill="none" stroke-linecap="round"/>
  <ellipse cx="1036" cy="68" rx="4" ry="3" fill="#B87040" opacity="0.35"/>
  <ellipse cx="1052" cy="68" rx="4" ry="3" fill="#B87040" opacity="0.35"/>
  <!-- Gentle smile -->
  <path d="M1024 82 Q1042 92 1060 84" stroke="#A87040" stroke-width="3" fill="none" stroke-linecap="round"/>
  <!-- Cheek blush -->
  <ellipse cx="1008" cy="76" rx="12" ry="7" fill="#E8927A" opacity="0.28"/>
  <ellipse cx="1076" cy="74" rx="12" ry="7" fill="#E8927A" opacity="0.28"/>

  <!-- ── STYLIST ARMS — reaching forward into client's hair ── -->
  <!-- Left arm (towards basin) -->
  <path d="M960 228 Q938 248 920 278 Q904 306 898 332 Q894 350 900 362" stroke="#D4956A" stroke-width="34" stroke-linecap="round" fill="none"/>
  <!-- Left hand -->
  <ellipse cx="900" cy="365" rx="22" ry="16" fill="#D4956A" transform="rotate(-30 900 365)"/>
  <!-- Fingers (flat cartoon) -->
  <path d="M886 358 Q880 348 884 340 Q888 334 894 338" stroke="#C48858" stroke-width="6" fill="none" stroke-linecap="round"/>
  <path d="M892 368 Q886 378 882 374 Q878 370 880 364" stroke="#C48858" stroke-width="5" fill="none" stroke-linecap="round"/>
  <path d="M904 374 Q900 384 896 382" stroke="#C48858" stroke-width="5" fill="none" stroke-linecap="round"/>

  <!-- Right arm (towards basin from other side) -->
  <path d="M1126 228 Q1146 248 1160 278 Q1174 306 1176 334 Q1178 352 1170 362" stroke="#D4956A" stroke-width="34" stroke-linecap="round" fill="none"/>
  <!-- Right hand -->
  <ellipse cx="1168" cy="366" rx="22" ry="16" fill="#D4956A" transform="rotate(30 1168 366)"/>
  <!-- Fingers -->
  <path d="M1180 358 Q1186 348 1182 340 Q1178 334 1172 338" stroke="#C48858" stroke-width="6" fill="none" stroke-linecap="round"/>
  <path d="M1176 368 Q1182 378 1186 374 Q1190 370 1188 364" stroke="#C48858" stroke-width="5" fill="none" stroke-linecap="round"/>
  <path d="M1164 374 Q1168 384 1172 382" stroke="#C48858" stroke-width="5" fill="none" stroke-linecap="round"/>

  <!-- ── DECORATIVE ELEMENTS ── -->
  <!-- Gold accent stripe on basin rim -->
  <path d="M700 148 L1060 148" stroke="#C9A96E" stroke-width="3" opacity="0.55"/>

  <!-- Gold floor accent line -->
  <line x1="540" y1="517" x2="1440" y2="517" stroke="#C9A96E" stroke-width="1.5" opacity="0.18"/>

  <!-- Small wall mirror above shelf (right) -->
  <rect x="1285" y="-60" width="148" height="160" rx="8" fill="#201C14" opacity="0.55"/>
  <rect x="1281" y="-64" width="156" height="168" rx="10" fill="none" stroke="#C9A96E" stroke-width="3" opacity="0.70"/>
  <rect x="1283" y="-62" width="152" height="3" fill="#C9A96E" opacity="0.30"/>

  <!-- ── VIGNETTES — exact wholesale ── -->
  <rect x="-308" y="-124" width="2057" height="829" fill="url(#vigL)"/>
  <rect x="-308" y="-124" width="2057" height="829" fill="url(#vigR)"/>
  <rect x="-308" y="-124" width="2057" height="829" fill="url(#vigT)"/>
  <rect x="-308" y="-124" width="2057" height="829" fill="url(#vigB)"/>

  </g>
</svg>
