<svg xmlns="http://www.w3.org/2000/svg" viewBox="0 0 1440 580" preserveAspectRatio="xMidYMid slice" width="1440" height="580">
  <defs>
    <!-- ── Studio backdrop — same grey as home page ── -->
    <linearGradient id="studioBase" x1="0" y1="0" x2="1" y2="0">
      <stop offset="0%"   stop-color="#484440"/>
      <stop offset="28%"  stop-color="#5A5652"/>
      <stop offset="55%"  stop-color="#5E5A56"/>
      <stop offset="80%"  stop-color="#585450"/>
      <stop offset="100%" stop-color="#4C4844"/>
    </linearGradient>
    <linearGradient id="studioTop" x1="0" y1="0" x2="0" y2="1">
      <stop offset="0%"   stop-color="#383430" stop-opacity="0.45"/>
      <stop offset="35%"  stop-color="#383430" stop-opacity="0"/>
      <stop offset="100%" stop-color="#2A2624" stop-opacity="0.3"/>
    </linearGradient>
    <!-- Key light upper right -->
    <radialGradient id="keyLight" cx="75%" cy="20%" r="48%">
      <stop offset="0%"   stop-color="#7A6A58" stop-opacity="0.55"/>
      <stop offset="45%"  stop-color="#686058" stop-opacity="0.25"/>
      <stop offset="100%" stop-color="#5E5A56" stop-opacity="0"/>
    </radialGradient>
    <!-- Fill light left -->
    <radialGradient id="fillLight" cx="12%" cy="42%" r="40%">
      <stop offset="0%"   stop-color="#6A6460" stop-opacity="0.4"/>
      <stop offset="100%" stop-color="#5E5A56" stop-opacity="0"/>
    </radialGradient>

    <!-- ── Skin tones ── -->
    <radialGradient id="faceSkin" cx="48%" cy="38%" r="55%">
      <stop offset="0%"   stop-color="#F2CCА2"/>
      <stop offset="30%"  stop-color="#E4B082"/>
      <stop offset="65%"  stop-color="#CA9060"/>
      <stop offset="100%" stop-color="#A87040"/>
    </radialGradient>
    <radialGradient id="faceSkinB" cx="48%" cy="38%" r="55%">
      <stop offset="0%"   stop-color="#F0C8A0"/>
      <stop offset="30%"  stop-color="#E2AE80"/>
      <stop offset="65%"  stop-color="#C88E5E"/>
      <stop offset="100%" stop-color="#A87040"/>
    </radialGradient>
    <radialGradient id="neckSkin" cx="50%" cy="35%" r="58%">
      <stop offset="0%"   stop-color="#EAB888"/>
      <stop offset="55%"  stop-color="#C88E60"/>
      <stop offset="100%" stop-color="#A87040"/>
    </radialGradient>
    <radialGradient id="shoulderSkin" cx="45%" cy="42%" r="60%">
      <stop offset="0%"   stop-color="#E8B07A"/>
      <stop offset="55%"  stop-color="#C08858"/>
      <stop offset="100%" stop-color="#985030"/>
    </radialGradient>

    <!-- ── BLONDE HAIR GRADIENTS ── -->
    <linearGradient id="hairBase" x1="0" y1="0" x2="0.15" y2="1">
      <stop offset="0%"   stop-color="#A08040"/>
      <stop offset="25%"  stop-color="#C4A050"/>
      <stop offset="55%"  stop-color="#D8B860"/>
      <stop offset="80%"  stop-color="#C0A048"/>
      <stop offset="100%" stop-color="#9A7838"/>
    </linearGradient>
    <linearGradient id="hairDark" x1="0" y1="0" x2="0.05" y2="1">
      <stop offset="0%"   stop-color="#6A4E18"/>
      <stop offset="40%"  stop-color="#8A6828"/>
      <stop offset="100%" stop-color="#705820"/>
    </linearGradient>
    <linearGradient id="hairShineA" x1="0" y1="0" x2="0.1" y2="1">
      <stop offset="0%"   stop-color="#F0DCA0" stop-opacity="0"/>
      <stop offset="22%"  stop-color="#F8F0C0" stop-opacity="0.9"/>
      <stop offset="48%"  stop-color="#F0D888" stop-opacity="0.75"/>
      <stop offset="78%"  stop-color="#E0C070" stop-opacity="0.5"/>
      <stop offset="100%" stop-color="#C8A850" stop-opacity="0"/>
    </linearGradient>
    <linearGradient id="hairShineB" x1="0.08" y1="0" x2="0.18" y2="1">
      <stop offset="0%"   stop-color="#F8F0C0" stop-opacity="0"/>
      <stop offset="30%"  stop-color="#FFFAE0" stop-opacity="0.85"/>
      <stop offset="58%"  stop-color="#F8E8A8" stop-opacity="0.65"/>
      <stop offset="100%" stop-color="#D8C070" stop-opacity="0"/>
    </linearGradient>
    <linearGradient id="hairShineC" x1="0.02" y1="0" x2="0.12" y2="1">
      <stop offset="0%"   stop-color="#E8D080" stop-opacity="0"/>
      <stop offset="35%"  stop-color="#F4E898" stop-opacity="0.7"/>
      <stop offset="65%"  stop-color="#ECD878" stop-opacity="0.5"/>
      <stop offset="100%" stop-color="#C8A840" stop-opacity="0"/>
    </linearGradient>

    <!-- ── SHOPPING BAG gradients ── -->
    <linearGradient id="bag1Front" x1="0" y1="0" x2="1" y2="0">
      <stop offset="0%"   stop-color="#EDE5D5"/>
      <stop offset="40%"  stop-color="#F5EEE0"/>
      <stop offset="80%"  stop-color="#EDE5D5"/>
      <stop offset="100%" stop-color="#DDD5C5"/>
    </linearGradient>
    <linearGradient id="bag1Side" x1="0" y1="0" x2="1" y2="0">
      <stop offset="0%"   stop-color="#D8D0C0"/>
      <stop offset="100%" stop-color="#C8C0B0"/>
    </linearGradient>
    <linearGradient id="bag1Shadow" x1="0" y1="0" x2="0" y2="1">
      <stop offset="0%"   stop-color="#2A2420" stop-opacity="0.35"/>
      <stop offset="100%" stop-color="#2A2420" stop-opacity="0"/>
    </linearGradient>
    <linearGradient id="bag2Front" x1="0" y1="0" x2="1" y2="0">
      <stop offset="0%"   stop-color="#E8E0D0"/>
      <stop offset="45%"  stop-color="#F0E8D8"/>
      <stop offset="100%" stop-color="#D8D0C0"/>
    </linearGradient>
    <linearGradient id="tissueGrad" x1="0" y1="0" x2="0" y2="1">
      <stop offset="0%"   stop-color="#FFFCF4"/>
      <stop offset="60%"  stop-color="#F5EEE0"/>
      <stop offset="100%" stop-color="#EDE5D5"/>
    </linearGradient>
    <!-- Bag floor shadow -->
    <radialGradient id="bagShadow" cx="50%" cy="100%" r="50%">
      <stop offset="0%"   stop-color="#1A1410" stop-opacity="0.5"/>
      <stop offset="100%" stop-color="#1A1410" stop-opacity="0"/>
    </radialGradient>

    <!-- Centre text overlay -->
    <radialGradient id="centreOverlay" cx="50%" cy="42%" r="45%">
      <stop offset="0%"   stop-color="#525050" stop-opacity="0.38"/>
      <stop offset="100%" stop-color="#525050" stop-opacity="0"/>
    </radialGradient>
    <!-- Edge vignette -->
    <radialGradient id="vignette" cx="62%" cy="45%" r="72%">
      <stop offset="50%"  stop-color="#5E5A56" stop-opacity="0"/>
      <stop offset="100%" stop-color="#303030" stop-opacity="0.72"/>
    </radialGradient>

    <filter id="softBlur"><feGaussianBlur stdDeviation="2"/></filter>
    <filter id="hairBlur"><feGaussianBlur stdDeviation="0.4"/></filter>
    <filter id="bagSoftBlur"><feGaussianBlur stdDeviation="1.5"/></filter>
  </defs>

  <!-- ─── STUDIO BACKDROP ─── -->
  <rect width="1440" height="580" fill="url(#studioBase)"/>
  <rect width="1440" height="580" fill="url(#studioTop)"/>
  <rect width="1440" height="580" fill="url(#keyLight)"/>
  <rect width="1440" height="580" fill="url(#fillLight)"/>

  <!-- ─── FLOOR LINE (subtle studio floor) ─── -->
  <rect x="0" y="530" width="1440" height="50" fill="#4A4642" opacity="0.3"/>
  <line x1="0" y1="530" x2="1440" y2="530" stroke="#3A3630" stroke-width="1" opacity="0.25"/>

  <!-- ─────────────────────────────────────────────── -->
  <!-- ──── SHOPPING BAGS (front-left area) ─────────── -->
  <!-- ─────────────────────────────────────────────── -->

  <!-- ── BAG 2 (back, slightly left) ── -->
  <g transform="translate(268, 248)">
    <!-- Floor shadow -->
    <ellipse cx="80" cy="282" rx="90" ry="14" fill="url(#bagShadow)" filter="url(#bagSoftBlur)"/>
    <!-- Bag body back -->
    <rect x="10" y="28" width="148" height="248" rx="4" fill="url(#bag2Front)" opacity="0.78"/>
    <!-- Bag side (right edge 3D) -->
    <rect x="154" y="30" width="22" height="246" rx="2" fill="url(#bag1Side)" opacity="0.7"/>
    <!-- Top edge back -->
    <rect x="10" y="20" width="148" height="12" rx="3" fill="#C8C0B0" opacity="0.7"/>
    <!-- Tissue paper -->
    <ellipse cx="84" cy="28" rx="62" ry="18" fill="url(#tissueGrad)" opacity="0.7"/>
    <!-- Handle rope left -->
    <path d="M 45 20 Q 35 -20 50 -32 Q 64 -42 80 -32 Q 95 -20 84 20" stroke="#9A8050" stroke-width="3.5" fill="none" opacity="0.65" stroke-linecap="round"/>
    <!-- Handle rope right -->
    <path d="M 115 20 Q 108 -18 122 -30 Q 136 -40 150 -30 Q 162 -18 156 20" stroke="#9A8050" stroke-width="3.5" fill="none" opacity="0.65" stroke-linecap="round"/>
    <!-- OLIV text (smaller, back bag) -->
    <text x="84" y="130" font-family="Georgia,serif" font-size="22" font-weight="300" letter-spacing="6" text-anchor="middle" fill="#B68A45" opacity="0.65">OLIV</text>
    <text x="84" y="155" font-family="Arial,sans-serif" font-size="8" letter-spacing="3" text-anchor="middle" fill="#9A7838" opacity="0.6">hair supply</text>
  </g>

  <!-- ── BAG 1 (front, main bag) ── -->
  <g transform="translate(310, 220)">
    <!-- Floor shadow -->
    <ellipse cx="88" cy="306" rx="100" ry="16" fill="url(#bagShadow)" filter="url(#bagSoftBlur)"/>
    <!-- Main bag body -->
    <rect x="0" y="30" width="172" height="270" rx="4" fill="url(#bag1Front)"/>
    <!-- Subtle crease/fold lines for paper bag realism -->
    <line x1="86" y1="32" x2="86" y2="298" stroke="#D8D0C0" stroke-width="1" opacity="0.5"/>
    <!-- Bag side right (3D depth) -->
    <rect x="168" y="32" width="28" height="268" rx="2" fill="url(#bag1Side)"/>
    <!-- Bottom fold -->
    <rect x="0" y="290" width="172" height="10" rx="2" fill="#D0C8B8" opacity="0.8"/>
    <!-- Bag side bottom right -->
    <rect x="168" y="290" width="28" height="10" rx="2" fill="#C0B8A8" opacity="0.8"/>
    <!-- Top edge / rim -->
    <rect x="0" y="18" width="172" height="16" rx="3" fill="#DDD5C5"/>
    <rect x="168" y="20" width="28" height="14" rx="2" fill="#CCCCBC"/>
    <!-- Tissue paper spilling out top -->
    <ellipse cx="86" cy="30" rx="74" ry="24" fill="url(#tissueGrad)"/>
    <!-- Tissue fold lines -->
    <path d="M 38 24 Q 52 14 68 22 Q 82 30 86 22 Q 92 12 108 20 Q 124 28 140 18" stroke="#F0E8D0" stroke-width="1.5" fill="none" opacity="0.7"/>
    <!-- Rope handles left -->
    <path d="M 38 18 Q 26 -28 44 -44 Q 62 -56 82 -44 Q 98 -28 90 18" stroke="#7A5C28" stroke-width="5" fill="none" opacity="0.8" stroke-linecap="round"/>
    <path d="M 38 18 Q 26 -28 44 -44 Q 62 -56 82 -44 Q 98 -28 90 18" stroke="#C9A96E" stroke-width="2.5" fill="none" opacity="0.7" stroke-linecap="round"/>
    <!-- Rope handles right -->
    <path d="M 120 18 Q 112 -26 132 -42 Q 150 -54 168 -42 Q 184 -26 176 18" stroke="#7A5C28" stroke-width="5" fill="none" opacity="0.8" stroke-linecap="round"/>
    <path d="M 120 18 Q 112 -26 132 -42 Q 150 -54 168 -42 Q 184 -26 176 18" stroke="#C9A96E" stroke-width="2.5" fill="none" opacity="0.7" stroke-linecap="round"/>
    <!-- Handle knot left -->
    <circle cx="82" cy="-44" r="5" fill="#9A7040" opacity="0.8"/>
    <!-- Handle knot right -->
    <circle cx="168" cy="-42" r="5" fill="#9A7040" opacity="0.8"/>
    <!-- ── OLIV branding on bag ── -->
    <!-- Gold horizontal rule above OLIV -->
    <line x1="34" y1="108" x2="138" y2="108" stroke="#C9A96E" stroke-width="0.8" opacity="0.7"/>
    <!-- OLIV in serif -->
    <text x="86" y="148" font-family="Georgia,serif" font-size="32" font-weight="300" letter-spacing="8" text-anchor="middle" fill="#B68A45">OLIV</text>
    <!-- hair supply line -->
    <text x="86" y="170" font-family="Arial,sans-serif" font-size="9" font-weight="400" letter-spacing="4" text-anchor="middle" fill="#8A6830">hair supply</text>
    <!-- Gold horizontal rule below -->
    <line x1="34" y1="182" x2="138" y2="182" stroke="#C9A96E" stroke-width="0.8" opacity="0.7"/>
    <!-- Subtle OLIV logo circle (optional decorative element) -->
    <circle cx="86" cy="240" r="20" fill="none" stroke="#C9A96E" stroke-width="0.7" opacity="0.35"/>
    <text x="86" y="244" font-family="Georgia,serif" font-size="10" text-anchor="middle" fill="#B68A45" opacity="0.4">OHS</text>
    <!-- Bag shine (light reflection on front face) -->
    <rect x="12" y="32" width="35" height="268" rx="2" fill="white" opacity="0.05"/>
  </g>

  <!-- ─────────────────────────────────────────────── -->
  <!-- ──── BLONDE MODEL (right side) ──────────────── -->
  <!-- ─────────────────────────────────────────────── -->

  <!-- Body shadow behind figure -->
  <ellipse cx="1060" cy="570" rx="310" ry="65" fill="#2A2420" opacity="0.4" filter="url(#softBlur)"/>

  <!-- ── DRESS / CLOTHING ── -->
  <path d="M 870 580 Q 920 460 975 405 Q 1005 380 1040 375 Q 1075 380 1105 405 Q 1155 460 1200 580 Z" fill="#1A1410" opacity="0.9"/>
  <ellipse cx="1040" cy="555" rx="210" ry="100" fill="#181210" opacity="0.85"/>

  <!-- ── SHOULDERS ── -->
  <path d="M 900 368 Q 920 352 960 345 Q 980 348 990 358 Q 968 372 946 392 Q 918 408 896 415 Z" fill="url(#shoulderSkin)" opacity="0.88"/>
  <path d="M 1178 368 Q 1160 352 1120 345 Q 1100 348 1090 358 Q 1112 372 1134 392 Q 1162 408 1184 415 Z" fill="url(#shoulderSkin)" opacity="0.85"/>

  <!-- ── NECK ── -->
  <ellipse cx="1040" cy="352" rx="30" ry="46" fill="url(#neckSkin)" opacity="0.92"/>
  <ellipse cx="1020" cy="358" rx="11" ry="36" fill="#9A6840" opacity="0.3"/>
  <ellipse cx="1060" cy="358" rx="9" ry="34" fill="#B07848" opacity="0.2"/>

  <!-- ── FACE ── -->
  <ellipse cx="1040" cy="248" rx="78" ry="92" fill="#8A5830" opacity="0.16" filter="url(#softBlur)"/>
  <ellipse cx="1040" cy="246" rx="72" ry="88" fill="url(#faceSkinB)" opacity="0.95"/>
  <!-- Cheek flush -->
  <ellipse cx="994" cy="270" rx="20" ry="14" fill="#E89070" opacity="0.15"/>
  <ellipse cx="1086" cy="270" rx="20" ry="14" fill="#E89070" opacity="0.15"/>
  <!-- Nose shadow -->
  <ellipse cx="1038" cy="282" rx="5.5" ry="7.5" fill="#9A5838" opacity="0.18"/>
  <!-- Upper lip -->
  <path d="M 1022 305 Q 1031 300 1040 302 Q 1049 300 1058 305 Q 1049 309 1040 309 Q 1031 309 1022 305 Z" fill="#BE7858" opacity="0.65"/>
  <!-- Lower lip -->
  <path d="M 1020 307 Q 1032 318 1040 320 Q 1048 318 1060 307 Q 1049 315 1040 318 Q 1031 315 1020 307 Z" fill="#CC8868" opacity="0.55"/>
  <!-- Temple shadow -->
  <path d="M 972 185 Q 966 225 968 265 Q 970 305 980 338" stroke="#9A5838" stroke-width="15" fill="none" opacity="0.18" stroke-linecap="round"/>
  <!-- Key light catch on cheek -->
  <ellipse cx="1075" cy="222" rx="26" ry="20" fill="#FAD8B0" opacity="0.12"/>
  <!-- Eyes -->
  <ellipse cx="1006" cy="230" rx="16" ry="7.5" fill="#2A1C0C" opacity="0.75"/>
  <ellipse cx="1074" cy="230" rx="16" ry="7.5" fill="#2A1C0C" opacity="0.75"/>
  <ellipse cx="1006" cy="229" rx="8" ry="6" fill="#4A3018" opacity="0.88"/>
  <ellipse cx="1074" cy="229" rx="8" ry="6" fill="#4A3018" opacity="0.88"/>
  <ellipse cx="1006" cy="229" rx="4" ry="3.5" fill="#0C0806" opacity="0.92"/>
  <ellipse cx="1074" cy="229" rx="4" ry="3.5" fill="#0C0806" opacity="0.92"/>
  <circle cx="1010" cy="226" r="2.5" fill="#F8E8D0" opacity="0.72"/>
  <circle cx="1078" cy="226" r="2.5" fill="#F8E8D0" opacity="0.72"/>
  <!-- Brows -->
  <path d="M 988 213 Q 1004 208 1022 211" stroke="#5A3C18" stroke-width="2.8" fill="none" opacity="0.65" stroke-linecap="round"/>
  <path d="M 1056 211 Q 1074 208 1090 213" stroke="#5A3C18" stroke-width="2.8" fill="none" opacity="0.65" stroke-linecap="round"/>
  <!-- Lashes top -->
  <g stroke="#0E0804" stroke-width="1.2" fill="none" opacity="0.68" stroke-linecap="round">
    <path d="M 990 228 Q 988 222 987 216"/><path d="M 993 226 Q 991 220 990 214"/>
    <path d="M 996 225 Q 995 219 995 213"/><path d="M 999 224 Q 999 218 1000 212"/>
    <path d="M 1002 224 Q 1003 218 1004 212"/><path d="M 1005 223 Q 1007 218 1009 213"/>
    <path d="M 1008 224 Q 1010 219 1013 214"/><path d="M 1011 224 Q 1014 219 1017 215"/>
    <path d="M 1014 225 Q 1017 220 1020 216"/><path d="M 1017 226 Q 1020 222 1023 218"/>
    <path d="M 1058 226 Q 1056 220 1055 214"/><path d="M 1061 225 Q 1059 219 1058 213"/>
    <path d="M 1064 224 Q 1063 218 1063 212"/><path d="M 1067 224 Q 1067 218 1068 212"/>
    <path d="M 1070 223 Q 1071 218 1073 212"/><path d="M 1073 224 Q 1075 218 1077 213"/>
    <path d="M 1076 224 Q 1078 219 1081 214"/><path d="M 1079 225 Q 1082 220 1085 216"/>
    <path d="M 1082 226 Q 1085 221 1088 218"/>
  </g>
  <!-- Nose hint -->
  <path d="M 1036 265 Q 1032 276 1028 285 Q 1034 291 1040 292" stroke="#9A5838" stroke-width="2.5" fill="none" opacity="0.22" stroke-linecap="round"/>
  <!-- Ear suggestion -->
  <ellipse cx="966" cy="255" rx="10" ry="14" fill="#CA8860" opacity="0.72"/>
  <ellipse cx="966" cy="255" rx="5.5" ry="9" fill="#A87048" opacity="0.45"/>

  <!-- ─── BLONDE HAIR — long, straight, sweeping ─── -->
  <!-- Hair mass behind head -->
  <ellipse cx="1040" cy="200" rx="130" ry="148" fill="#9A7830" opacity="0.88"/>

  <!-- ── Main hair curtain — diagonal sweep like home page ── -->
  <!-- Hair falls from top-right, sweeps diagonally across toward lower-left -->
  <g opacity="0.9" stroke-linecap="round" fill="none">
    <!-- Dark base strands — full fall -->
    <path d="M 950 0 Q 920 120 910 240 Q 900 360 908 480 Q 914 535 920 580" stroke="#7A5A20" stroke-width="6"/>
    <path d="M 965 0 Q 938 125 928 248 Q 918 370 926 490 Q 932 538 938 580" stroke="#7A5A20" stroke-width="5.5"/>
    <path d="M 978 0 Q 954 128 945 252 Q 936 374 944 492 Q 950 540 956 580" stroke="#6A4E18" stroke-width="6"/>
    <path d="M 992 0 Q 970 130 962 254 Q 954 376 961 494 Q 967 542 972 580" stroke="#7A5A20" stroke-width="5"/>
    <path d="M 1006 0 Q 986 132 978 256 Q 970 378 977 496 Q 983 544 988 580" stroke="#8A6828" stroke-width="5.5"/>
    <path d="M 1020 0 Q 1002 132 994 256 Q 986 378 993 496 Q 999 544 1004 580" stroke="#6A4E18" stroke-width="5"/>
    <path d="M 1034 0 Q 1018 133 1011 257 Q 1004 379 1010 497 Q 1016 545 1021 580" stroke="#7A5A20" stroke-width="5.5"/>
    <path d="M 1048 0 Q 1034 134 1028 258 Q 1022 380 1027 498 Q 1033 546 1038 580" stroke="#8A6828" stroke-width="5"/>
    <path d="M 1062 0 Q 1050 135 1045 259 Q 1040 381 1044 499 Q 1050 547 1055 580" stroke="#6A4E18" stroke-width="5.5"/>
    <path d="M 1076 0 Q 1066 135 1061 259 Q 1056 381 1060 499 Q 1066 547 1071 580" stroke="#7A5A20" stroke-width="5"/>
    <path d="M 1090 0 Q 1082 136 1078 260 Q 1074 382 1077 500 Q 1083 548 1088 580" stroke="#8A6828" stroke-width="4.5"/>
    <path d="M 1104 0 Q 1098 137 1094 261 Q 1090 383 1093 501 Q 1098 549 1103 580" stroke="#6A4E18" stroke-width="5"/>
    <path d="M 1118 4 Q 1114 138 1110 262 Q 1106 384 1109 502 Q 1114 550 1119 580" stroke="#7A5A20" stroke-width="4.5"/>
    <path d="M 1132 10 Q 1130 140 1127 264 Q 1124 386 1126 504 Q 1131 552 1136 580" stroke="#8A6828" stroke-width="4"/>
    <path d="M 1146 18 Q 1146 143 1143 267 Q 1140 388 1142 505 Q 1147 553 1152 580" stroke="#6A4E18" stroke-width="4"/>
    <path d="M 1160 28 Q 1162 147 1159 270 Q 1156 391 1158 507 Q 1162 554 1167 580" stroke="#7A5A20" stroke-width="3.5"/>
    <path d="M 1174 40 Q 1178 152 1175 274 Q 1172 394 1174 509 Q 1178 555 1183 580" stroke="#8A6828" stroke-width="3"/>
    <path d="M 1188 54 Q 1194 158 1191 278 Q 1188 397 1190 511 Q 1194 556 1199 580" stroke="#6A4E18" stroke-width="3"/>
    <!-- Left side hair -->
    <path d="M 936 0 Q 906 118 896 238 Q 886 358 894 476 Q 900 532 906 580" stroke="#7A5A20" stroke-width="5.5"/>
    <path d="M 922 0 Q 890 116 880 236 Q 870 356 878 474 Q 884 530 890 580" stroke="#6A4E18" stroke-width="5"/>
    <path d="M 908 0 Q 874 114 864 234 Q 854 354 862 472 Q 868 528 874 580" stroke="#8A6828" stroke-width="4.5"/>
    <path d="M 894 0 Q 858 112 848 232 Q 838 352 847 470 Q 853 526 859 580" stroke="#7A5A20" stroke-width="4"/>
    <path d="M 880 0 Q 842 110 832 230 Q 822 350 831 468 Q 837 524 843 580" stroke="#6A4E18" stroke-width="4"/>
  </g>

  <!-- ── HAIR MIDTONE LAYER ── -->
  <g opacity="0.65" stroke-linecap="round" fill="none">
    <path d="M 958 0 Q 934 127 925 252 Q 916 376 923 494 Q 929 542 935 580" stroke="#C0A050" stroke-width="3.5"/>
    <path d="M 974 0 Q 952 128 944 253 Q 936 376 942 494 Q 948 542 954 580" stroke="#B89040" stroke-width="3.8"/>
    <path d="M 990 0 Q 970 129 962 254 Q 954 377 960 495 Q 966 543 972 580" stroke="#C0A050" stroke-width="3.5"/>
    <path d="M 1006 0 Q 988 130 981 255 Q 974 378 979 496 Q 985 544 991 580" stroke="#C8A850" stroke-width="4"/>
    <path d="M 1022 0 Q 1006 131 999 256 Q 992 379 997 497 Q 1003 545 1009 580" stroke="#B89040" stroke-width="3.5"/>
    <path d="M 1038 0 Q 1024 132 1018 257 Q 1012 380 1016 498 Q 1022 546 1028 580" stroke="#C0A050" stroke-width="3.8"/>
    <path d="M 1054 0 Q 1042 133 1037 258 Q 1032 381 1035 499 Q 1041 547 1047 580" stroke="#C8A850" stroke-width="3.5"/>
    <path d="M 1070 0 Q 1060 134 1056 259 Q 1052 382 1054 500 Q 1060 548 1066 580" stroke="#B89040" stroke-width="4"/>
    <path d="M 1086 0 Q 1078 135 1075 260 Q 1072 383 1073 501 Q 1079 549 1085 580" stroke="#C0A050" stroke-width="3.5"/>
    <path d="M 1102 0 Q 1096 136 1093 261 Q 1090 384 1091 502 Q 1096 550 1102 580" stroke="#C8A850" stroke-width="3.8"/>
    <path d="M 1118 4 Q 1114 137 1112 262 Q 1110 385 1110 502 Q 1115 550 1121 580" stroke="#B89040" stroke-width="3.5"/>
    <path d="M 946 0 Q 920 126 911 250 Q 902 374 910 492 Q 916 540 922 580" stroke="#C0A050" stroke-width="3.8"/>
    <path d="M 932 0 Q 904 124 895 248 Q 886 372 894 490 Q 900 538 906 580" stroke="#C8A850" stroke-width="3.5"/>
  </g>

  <!-- ── SHINE HIGHLIGHTS — bright blonde catch-lights ── -->
  <g opacity="0.75" stroke-linecap="round" fill="none">
    <path d="M 976 0 Q 956 129 948 254 Q 940 377 946 495 Q 952 543 958 580" stroke="#F8F0C0" stroke-width="1.8"/>
    <path d="M 988 0 Q 970 130 963 255 Q 956 378 961 496 Q 967 544 973 580" stroke="#FFFAE0" stroke-width="2"/>
    <path d="M 1000 0 Q 984 131 977 256 Q 970 379 975 497 Q 981 545 987 580" stroke="#F8F0C0" stroke-width="1.8"/>
    <path d="M 1012 0 Q 998 132 992 257 Q 986 380 990 498 Q 996 546 1002 580" stroke="#FFFAE0" stroke-width="2.2"/>
    <path d="M 1024 0 Q 1012 133 1007 258 Q 1002 381 1005 499 Q 1011 547 1017 580" stroke="#F8F0C0" stroke-width="1.8"/>
    <path d="M 1036 0 Q 1026 134 1022 259 Q 1018 382 1020 500 Q 1026 548 1032 580" stroke="#FFFAE0" stroke-width="2"/>
    <path d="M 1048 0 Q 1040 135 1036 260 Q 1032 383 1034 501 Q 1040 549 1046 580" stroke="#F8F0C0" stroke-width="1.8"/>
    <path d="M 1060 0 Q 1054 136 1051 261 Q 1048 384 1049 502 Q 1055 550 1061 580" stroke="#FFFAE0" stroke-width="2.2"/>
    <path d="M 1072 0 Q 1068 137 1065 262 Q 1062 385 1063 503 Q 1068 551 1074 580" stroke="#F8F0C0" stroke-width="1.8"/>
    <path d="M 1084 0 Q 1082 138 1079 263 Q 1076 386 1077 504 Q 1082 552 1088 580" stroke="#FFFAE0" stroke-width="2"/>
    <path d="M 1096 0 Q 1096 139 1093 264 Q 1090 387 1090 505 Q 1095 553 1101 580" stroke="#F8F0C0" stroke-width="1.8"/>
    <path d="M 964 0 Q 942 128 934 252 Q 926 376 933 493 Q 939 541 945 580" stroke="#F8F0C0" stroke-width="1.8"/>
    <path d="M 952 0 Q 928 127 919 251 Q 910 375 918 492 Q 924 540 930 580" stroke="#FFFAE0" stroke-width="1.6"/>
  </g>

  <!-- ── FINE SHIMMER THREADS ── -->
  <g opacity="0.45" stroke-linecap="round" fill="none">
    <path d="M 994 0 Q 978 131 971 256 Q 964 379 969 497 Q 975 545 981 580" stroke="#FFFEF8" stroke-width="0.8"/>
    <path d="M 1008 0 Q 994 132 988 257 Q 982 380 986 498 Q 992 546 998 580" stroke="#FFFEFC" stroke-width="0.9"/>
    <path d="M 1022 0 Q 1010 133 1005 258 Q 1000 381 1003 499 Q 1009 547 1015 580" stroke="#FFFEF8" stroke-width="0.8"/>
    <path d="M 1036 0 Q 1026 134 1022 259 Q 1018 382 1020 500 Q 1026 548 1032 580" stroke="#FFFEFC" stroke-width="0.9"/>
    <path d="M 1050 0 Q 1042 135 1038 260 Q 1034 383 1036 501 Q 1042 549 1048 580" stroke="#FFFEF8" stroke-width="0.8"/>
    <path d="M 1064 0 Q 1058 136 1055 261 Q 1052 384 1053 502 Q 1059 550 1065 580" stroke="#FFFEFC" stroke-width="0.9"/>
  </g>

  <!-- ── HAIR CROWN ── -->
  <ellipse cx="1040" cy="155" rx="115" ry="88" fill="#8A6820" opacity="0.94"/>
  <!-- Crown shine -->
  <path d="M 1000 106 Q 1040 92 1080 106" stroke="#D4B050" stroke-width="22" fill="none" opacity="0.45" stroke-linecap="round"/>
  <path d="M 1012 100 Q 1040 88 1068 100" stroke="#EAD070" stroke-width="10" fill="none" opacity="0.38" stroke-linecap="round"/>
  <path d="M 1022 96 Q 1040 86 1058 96" stroke="#FFF0A0" stroke-width="5" fill="none" opacity="0.4" stroke-linecap="round"/>
  <!-- Hairline -->
  <path d="M 975 170 Q 1005 155 1040 150 Q 1075 155 1106 170" fill="none" stroke="#7A5C20" stroke-width="11" stroke-linecap="round" opacity="0.85"/>

  <!-- ─── OVERLAYS ─── -->
  <!-- Centre darkening for text readability -->
  <rect width="1440" height="580" fill="url(#centreOverlay)"/>
  <!-- Vignette -->
  <rect width="1440" height="580" fill="url(#vignette)"/>
  <!-- Bottom-left for bag depth -->
  <linearGradient id="bagAreaDarken" x1="0" y1="1" x2="0.4" y2="0">
    <stop offset="0%"   stop-color="#282420" stop-opacity="0.3"/>
    <stop offset="100%" stop-color="#282420" stop-opacity="0"/>
  </linearGradient>
  <rect width="580" height="580" fill="url(#bagAreaDarken)"/>
</svg>
