<svg xmlns="http://www.w3.org/2000/svg" viewBox="0 0 1440 580" preserveAspectRatio="xMidYMid slice" width="1440" height="580">
  <defs>
    <!-- ── Studio grey backdrop (same as home page) ── -->
    <linearGradient id="studio" x1="0" y1="0" x2="1" y2="0">
      <stop offset="0%"   stop-color="#464240"/>
      <stop offset="30%"  stop-color="#585450"/>
      <stop offset="55%"  stop-color="#5E5A56"/>
      <stop offset="82%"  stop-color="#565250"/>
      <stop offset="100%" stop-color="#4C4844"/>
    </linearGradient>
    <linearGradient id="studioTop" x1="0" y1="0" x2="0" y2="1">
      <stop offset="0%"   stop-color="#303030" stop-opacity="0.42"/>
      <stop offset="38%"  stop-color="#303030" stop-opacity="0"/>
      <stop offset="100%" stop-color="#282420" stop-opacity="0.28"/>
    </linearGradient>
    <radialGradient id="keyLight" cx="72%" cy="18%" r="50%">
      <stop offset="0%"   stop-color="#787060" stop-opacity="0.5"/>
      <stop offset="100%" stop-color="#5E5A56" stop-opacity="0"/>
    </radialGradient>

    <!-- ── BAG gradients ── -->
    <linearGradient id="bagFront" x1="0" y1="0" x2="1" y2="0">
      <stop offset="0%"   stop-color="#E8E0D0"/>
      <stop offset="22%"  stop-color="#F5EDE0"/>
      <stop offset="55%"  stop-color="#F8F2E6"/>
      <stop offset="82%"  stop-color="#EEE6D6"/>
      <stop offset="100%" stop-color="#E2DAC8"/>
    </linearGradient>
    <linearGradient id="bagFrontShad" x1="0" y1="0" x2="0" y2="1">
      <stop offset="0%"   stop-color="#C8C0B0" stop-opacity="0.15"/>
      <stop offset="50%"  stop-color="#D8D0C0" stop-opacity="0"/>
      <stop offset="100%" stop-color="#A09080" stop-opacity="0.22"/>
    </linearGradient>
    <linearGradient id="bagSide" x1="0" y1="0" x2="1" y2="0">
      <stop offset="0%"   stop-color="#CCC4B4"/>
      <stop offset="100%" stop-color="#B8B0A0"/>
    </linearGradient>
    <linearGradient id="bagTop" x1="0" y1="0" x2="0" y2="1">
      <stop offset="0%"   stop-color="#D8D0C0"/>
      <stop offset="100%" stop-color="#C8C0B2"/>
    </linearGradient>
    <radialGradient id="bagFloorShadow" cx="50%" cy="100%" r="50%">
      <stop offset="0%"   stop-color="#181410" stop-opacity="0.55"/>
      <stop offset="100%" stop-color="#181410" stop-opacity="0"/>
    </radialGradient>
    <!-- Tissue paper at top of bag -->
    <linearGradient id="tissue" x1="0" y1="1" x2="0" y2="0">
      <stop offset="0%"   stop-color="#F0E8D8"/>
      <stop offset="60%"  stop-color="#FAF4EC"/>
      <stop offset="100%" stop-color="#FFFDF8"/>
    </linearGradient>

    <!-- ── GOLD MANNEQUIN gradients ── -->
    <radialGradient id="mannHead" cx="55%" cy="35%" r="55%">
      <stop offset="0%"   stop-color="#F8E8A0"/>
      <stop offset="28%"  stop-color="#E8CA60"/>
      <stop offset="58%"  stop-color="#C8A030"/>
      <stop offset="82%"  stop-color="#906010"/>
      <stop offset="100%" stop-color="#6A4208"/>
    </radialGradient>
    <radialGradient id="mannNeck" cx="52%" cy="30%" r="60%">
      <stop offset="0%"   stop-color="#E8C850"/>
      <stop offset="55%"  stop-color="#C09020"/>
      <stop offset="100%" stop-color="#8A6010"/>
    </radialGradient>
    <radialGradient id="mannChest" cx="50%" cy="32%" r="58%">
      <stop offset="0%"   stop-color="#F0D870"/>
      <stop offset="30%"  stop-color="#D4A838"/>
      <stop offset="60%"  stop-color="#B08018"/>
      <stop offset="100%" stop-color="#7A5408"/>
    </radialGradient>
    <radialGradient id="mannShoulder" cx="42%" cy="38%" r="60%">
      <stop offset="0%"   stop-color="#EAC848"/>
      <stop offset="45%"  stop-color="#C09020"/>
      <stop offset="100%" stop-color="#8A5E0C"/>
    </radialGradient>
    <!-- Head highlight catch-light -->
    <radialGradient id="headHighlight" cx="62%" cy="28%" r="35%">
      <stop offset="0%"   stop-color="#FFF8D0" stop-opacity="0.85"/>
      <stop offset="100%" stop-color="#F8E880" stop-opacity="0"/>
    </radialGradient>

    <!-- ── BLONDE HAIR gradients ── -->
    <linearGradient id="hairBase" x1="0" y1="0" x2="0.12" y2="1">
      <stop offset="0%"   stop-color="#9A7A28"/>
      <stop offset="30%"  stop-color="#C09838"/>
      <stop offset="65%"  stop-color="#D8B050"/>
      <stop offset="100%" stop-color="#B88A30"/>
    </linearGradient>
    <linearGradient id="hairShine" x1="0" y1="0" x2="0.08" y2="1">
      <stop offset="0%"   stop-color="#F8ECA0" stop-opacity="0"/>
      <stop offset="25%"  stop-color="#FFF8C8" stop-opacity="0.88"/>
      <stop offset="55%"  stop-color="#F0E090" stop-opacity="0.7"/>
      <stop offset="100%" stop-color="#D8C060" stop-opacity="0"/>
    </linearGradient>
    <linearGradient id="hairShine2" x1="0.04" y1="0" x2="0.14" y2="1">
      <stop offset="0%"   stop-color="#FFFCE0" stop-opacity="0"/>
      <stop offset="30%"  stop-color="#FFFEF0" stop-opacity="0.82"/>
      <stop offset="60%"  stop-color="#F8ECA0" stop-opacity="0.6"/>
      <stop offset="100%" stop-color="#E0C868" stop-opacity="0"/>
    </linearGradient>

    <!-- Centre text overlay -->
    <radialGradient id="centreOverlay" cx="50%" cy="44%" r="42%">
      <stop offset="0%"   stop-color="#504C48" stop-opacity="0.42"/>
      <stop offset="100%" stop-color="#504C48" stop-opacity="0"/>
    </radialGradient>
    <!-- Left atmospheric depth -->
    <linearGradient id="leftDepth" x1="0" y1="0" x2="1" y2="0">
      <stop offset="0%"   stop-color="#383430" stop-opacity="0.7"/>
      <stop offset="35%"  stop-color="#383430" stop-opacity="0.15"/>
      <stop offset="100%" stop-color="#383430" stop-opacity="0"/>
    </linearGradient>
    <!-- Vignette -->
    <radialGradient id="vignette" cx="52%" cy="50%" r="70%">
      <stop offset="48%"  stop-color="#5E5A56" stop-opacity="0"/>
      <stop offset="100%" stop-color="#282420" stop-opacity="0.78"/>
    </radialGradient>

    <filter id="softBlur"><feGaussianBlur stdDeviation="2.5"/></filter>
    <filter id="bagGlow">
      <feGaussianBlur stdDeviation="6" result="blur"/>
      <feComposite in="SourceGraphic" in2="blur" operator="over"/>
    </filter>
    <filter id="hairBlur"><feGaussianBlur stdDeviation="0.5"/></filter>
  </defs>

  <!-- ─── STUDIO BACKDROP ─── -->
  <rect width="1440" height="580" fill="url(#studio)"/>
  <rect width="1440" height="580" fill="url(#studioTop)"/>
  <rect width="1440" height="580" fill="url(#keyLight)"/>

  <!-- Studio floor line -->
  <rect x="0" y="540" width="1440" height="40" fill="#3E3A36" opacity="0.5"/>
  <line x1="0" y1="540" x2="1440" y2="540" stroke="#2E2A26" stroke-width="1" opacity="0.4"/>

  <!-- ─────────────────────────────────────────── -->
  <!-- ──── SHOPPING BAG ─────────────────────── -->
  <!-- ─────────────────────────────────────────── -->
  <!--
    Front face:  x 632–855  (223px wide)
    Height:      y 262–538  (276px tall)
    Center x: 743 ← within mobile view zone
    Side depth (3D): x 855–888
  -->

  <!-- Floor shadow under bag -->
  <ellipse cx="760" cy="542" rx="135" ry="16" fill="url(#bagFloorShadow)" filter="url(#softBlur)"/>

  <!-- Bag side (right, 3D) -->
  <rect x="853" y="265" width="35" height="274" rx="2" fill="url(#bagSide)"/>
  <!-- Bag side top -->
  <rect x="853" y="258" width="35" height="12" rx="2" fill="#C0B8A8"/>
  <!-- Bag side bottom fold -->
  <rect x="853" y="526" width="35" height="12" rx="2" fill="#B0A898"/>

  <!-- ── MAIN BAG FRONT ── -->
  <rect x="632" y="262" width="223" height="276" rx="3" fill="url(#bagFront)"/>
  <!-- Front shading overlay -->
  <rect x="632" y="262" width="223" height="276" rx="3" fill="url(#bagFrontShad)"/>
  <!-- Subtle vertical crease centre -->
  <line x1="743" y1="264" x2="743" y2="536" stroke="#D8D0C0" stroke-width="0.8" opacity="0.6"/>
  <!-- Side edge highlight -->
  <rect x="632" y="262" width="12" height="276" fill="white" opacity="0.06" rx="3"/>
  <!-- Bottom fold -->
  <rect x="632" y="526" width="223" height="12" rx="2" fill="#D0C8B8"/>
  <rect x="853" y="526" width="35" height="12" rx="2" fill="#BEB6A6"/>

  <!-- ── BAG TOP RIM ── -->
  <rect x="632" y="252" width="223" height="14" rx="3" fill="url(#bagTop)"/>
  <rect x="853" y="254" width="35" height="12" rx="2" fill="#C0B8A8"/>

  <!-- ── TISSUE PAPER (top of bag opening) ── -->
  <!-- Soft tissue spilling from opening, transitioning into mannequin -->
  <ellipse cx="743" cy="258" rx="95" ry="30" fill="url(#tissue)" opacity="0.85"/>
  <path d="M 665 258 Q 685 244 704 252 Q 718 258 730 248 Q 742 238 755 252 Q 768 264 782 252 Q 796 242 812 250 Q 826 257 843 246"
    stroke="#EEE6D8" stroke-width="2" fill="none" opacity="0.6"/>

  <!-- ── ROPE HANDLES ── -->
  <!-- Left handle -->
  <path d="M 672 252 Q 658 198 672 170 Q 686 144 706 152 Q 722 158 718 182 Q 715 206 724 218 Q 730 228 735 244"
    stroke="#7A5C22" stroke-width="6.5" fill="none" opacity="0.9" stroke-linecap="round"/>
  <path d="M 672 252 Q 658 198 672 170 Q 686 144 706 152 Q 722 158 718 182 Q 715 206 724 218 Q 730 228 735 244"
    stroke="#C9A96E" stroke-width="3.5" fill="none" opacity="0.75" stroke-linecap="round"/>
  <!-- Right handle -->
  <path d="M 810 252 Q 826 198 812 170 Q 798 144 778 152 Q 762 158 766 182 Q 769 206 760 218 Q 754 228 749 244"
    stroke="#7A5C22" stroke-width="6.5" fill="none" opacity="0.9" stroke-linecap="round"/>
  <path d="M 810 252 Q 826 198 812 170 Q 798 144 778 152 Q 762 158 766 182 Q 769 206 760 218 Q 754 228 749 244"
    stroke="#C9A96E" stroke-width="3.5" fill="none" opacity="0.75" stroke-linecap="round"/>
  <!-- Handle knot left -->
  <ellipse cx="706" cy="152" rx="7" ry="5" fill="#9A7030" opacity="0.85"/>
  <ellipse cx="778" cy="152" rx="7" ry="5" fill="#9A7030" opacity="0.85"/>

  <!-- ── BRAND ELEMENTS ON BAG FRONT ── -->
  <!-- Top gold rule -->
  <line x1="668" y1="292" x2="818" y2="292" stroke="#C9A96E" stroke-width="0.9" opacity="0.75"/>

  <!-- OLIV logo silhouette (woman profile with flowing hair) -->
  <!-- Head -->
  <ellipse cx="743" cy="326" rx="14" ry="17" fill="#B68A45" opacity="0.88"/>
  <!-- Hair flowing from head — elegant S-curve shape -->
  <path d="M 752 313 Q 768 304 772 290 Q 776 276 770 265 Q 764 255 756 254 Q 748 253 746 259 Q 744 265 750 271 Q 756 277 755 288 Q 754 299 746 308 Q 738 317 738 326"
    stroke="#B68A45" stroke-width="5" fill="none" opacity="0.85" stroke-linecap="round"/>
  <!-- Neck suggestion -->
  <rect x="739" y="340" width="8" height="12" rx="3" fill="#B68A45" opacity="0.75"/>

  <!-- OLIVHAIRSUPPLY main brand text -->
  <text x="743" y="374" font-family="Georgia,serif" font-size="18.5" font-weight="400" letter-spacing="3.5" text-anchor="middle" fill="#B68A45" opacity="0.92">OlivHairSupply</text>

  <!-- Divider rule -->
  <line x1="678" y1="386" x2="808" y2="386" stroke="#C9A96E" stroke-width="0.7" opacity="0.65"/>

  <!-- Website URL -->
  <text x="743" y="400" font-family="Arial,sans-serif" font-size="9" letter-spacing="1.5" text-anchor="middle" fill="#9A7838" opacity="0.88">www.olivhairsupply.de</text>

  <!-- Bottom gold rule -->
  <line x1="668" y1="412" x2="818" y2="412" stroke="#C9A96E" stroke-width="0.9" opacity="0.75"/>

  <!-- Subtle emboss/seal on lower bag -->
  <circle cx="743" cy="476" r="24" fill="none" stroke="#C9A96E" stroke-width="0.7" opacity="0.28"/>
  <circle cx="743" cy="476" r="18" fill="none" stroke="#C9A96E" stroke-width="0.5" opacity="0.2"/>
  <text x="743" y="480" font-family="Georgia,serif" font-size="8" letter-spacing="2" text-anchor="middle" fill="#B68A45" opacity="0.25">OHS</text>

  <!-- ─────────────────────────────────────────── -->
  <!-- ──── GOLD MANNEQUIN (above bag) ──────────── -->
  <!-- ─────────────────────────────────────────── -->
  <!--
    Head center: (743, 120)
    Neck: y 168–222
    Shoulders: y 222–255
    Lower torso merges into bag opening at y~260
  -->

  <!-- Torso shadow behind figure (atmospheric) -->
  <ellipse cx="743" cy="300" rx="95" ry="200" fill="#282420" opacity="0.18" filter="url(#softBlur)"/>

  <!-- ── LOWER TORSO (merging into bag) ── -->
  <path d="M 696 262 Q 706 248 720 242 Q 733 238 743 238 Q 753 238 766 242 Q 780 248 790 262 Q 798 270 800 280 L 686 280 Q 688 270 696 262 Z"
    fill="url(#mannChest)" opacity="0.9"/>

  <!-- ── CHEST ── -->
  <path d="M 686 280 Q 692 255 706 244 Q 720 234 743 232 Q 766 234 780 244 Q 794 255 800 280 Q 794 296 780 302 Q 766 308 743 308 Q 720 308 706 302 Q 692 296 686 280 Z"
    fill="url(#mannChest)"/>
  <!-- Chest centre crease (mannequin seam) -->
  <line x1="743" y1="235" x2="743" y2="308" stroke="#A07818" stroke-width="1.2" opacity="0.3"/>

  <!-- ── SHOULDERS ── -->
  <!-- Left shoulder -->
  <path d="M 686 280 Q 672 272 660 258 Q 648 244 648 228 Q 650 214 660 208 Q 672 202 684 208 Q 694 214 698 228 Q 702 242 696 256 Q 690 268 686 280 Z"
    fill="url(#mannShoulder)"/>
  <!-- Right shoulder -->
  <path d="M 800 280 Q 814 272 826 258 Q 838 244 838 228 Q 836 214 826 208 Q 814 202 802 208 Q 792 214 788 228 Q 784 242 790 256 Q 796 268 800 280 Z"
    fill="url(#mannShoulder)"/>
  <!-- Shoulder edge highlight -->
  <path d="M 660 216 Q 672 206 686 212" stroke="#F0D870" stroke-width="3" fill="none" opacity="0.4" stroke-linecap="round"/>
  <path d="M 826 216 Q 814 206 800 212" stroke="#F0D870" stroke-width="3" fill="none" opacity="0.4" stroke-linecap="round"/>

  <!-- ── NECK ── -->
  <path d="M 724 172 Q 732 166 743 164 Q 754 166 762 172 L 764 218 Q 756 224 743 226 Q 730 224 722 218 Z"
    fill="url(#mannNeck)"/>
  <!-- Neck sheen -->
  <path d="M 734 168 Q 740 163 746 166" stroke="#F0DC80" stroke-width="2.5" fill="none" opacity="0.45" stroke-linecap="round"/>

  <!-- ── HEAD — woman's face mannequin with blonde wig ── -->
  <!-- Head ambient shadow -->
  <ellipse cx="743" cy="124" rx="52" ry="62" fill="#3A2808" opacity="0.28" filter="url(#softBlur)"/>
  <!-- Main head/face shape -->
  <ellipse cx="743" cy="116" rx="44" ry="53" fill="url(#mannHead)"/>

  <!-- ── FACE FEATURES (gold mannequin aesthetic) ── -->
  <!-- Temple contour shadows for 3D face shape -->
  <path d="M 700 106 Q 700 126 704 148 Q 708 168 716 178" stroke="#7A5010" stroke-width="9" fill="none" opacity="0.3" stroke-linecap="round"/>
  <path d="M 786 106 Q 786 126 782 148 Q 778 168 770 178" stroke="#7A5010" stroke-width="9" fill="none" opacity="0.3" stroke-linecap="round"/>
  <!-- Cheekbone highlights -->
  <ellipse cx="718" cy="128" rx="14" ry="10" fill="#F8ECA0" opacity="0.22"/>
  <ellipse cx="768" cy="128" rx="14" ry="10" fill="#F8ECA0" opacity="0.22"/>
  <!-- Brow ridge -->
  <path d="M 714 96 Q 728 90 742 91 Q 756 90 772 96" stroke="#C09030" stroke-width="2.5" fill="none" opacity="0.55" stroke-linecap="round"/>
  <!-- Left eye socket shadow -->
  <ellipse cx="722" cy="108" rx="13" ry="9" fill="#7A5010" opacity="0.35"/>
  <!-- Right eye socket shadow -->
  <ellipse cx="764" cy="108" rx="13" ry="9" fill="#7A5010" opacity="0.35"/>
  <!-- Left eye iris (gold/amber) -->
  <ellipse cx="722" cy="108" rx="8" ry="7" fill="#C08020" opacity="0.8"/>
  <ellipse cx="722" cy="108" rx="4.5" ry="4" fill="#5A3008" opacity="0.85"/>
  <!-- Right eye iris -->
  <ellipse cx="764" cy="108" rx="8" ry="7" fill="#C08020" opacity="0.8"/>
  <ellipse cx="764" cy="108" rx="4.5" ry="4" fill="#5A3008" opacity="0.85"/>
  <!-- Eye catch-lights -->
  <circle cx="725" cy="105" r="2" fill="#F8ECA0" opacity="0.7"/>
  <circle cx="767" cy="105" r="2" fill="#F8ECA0" opacity="0.7"/>
  <!-- Upper lash line left -->
  <path d="M 710 105 Q 722 100 734 105" stroke="#4A2808" stroke-width="2" fill="none" opacity="0.7" stroke-linecap="round"/>
  <!-- Upper lash line right -->
  <path d="M 752 105 Q 764 100 776 105" stroke="#4A2808" stroke-width="2" fill="none" opacity="0.7" stroke-linecap="round"/>
  <!-- Nose bridge shadow -->
  <path d="M 740 115 Q 738 126 736 132 Q 734 137 736 140 Q 740 143 744 143 Q 748 143 752 140 Q 754 137 752 132 Q 750 126 748 115" stroke="#9A6820" stroke-width="1.8" fill="none" opacity="0.4" stroke-linecap="round"/>
  <!-- Nose tip highlight -->
  <ellipse cx="743" cy="141" rx="6" ry="4" fill="#F0D870" opacity="0.22"/>
  <!-- Philtrum -->
  <path d="M 740 151 Q 743 157 746 151" stroke="#A07020" stroke-width="1.5" fill="none" opacity="0.45"/>
  <!-- Upper lip -->
  <path d="M 727 158 Q 735 153 743 155 Q 751 153 759 158 Q 751 162 743 162 Q 735 162 727 158 Z" fill="#C07830" opacity="0.7"/>
  <!-- Lower lip -->
  <path d="M 726 160 Q 735 170 743 172 Q 751 170 760 160 Q 751 167 743 169 Q 735 167 726 160 Z" fill="#D08840" opacity="0.6"/>
  <!-- Chin form -->
  <ellipse cx="743" cy="178" rx="16" ry="10" fill="#D4A840" opacity="0.2"/>
  <!-- Head key-light catch (studio) -->
  <ellipse cx="755" cy="96" rx="18" ry="14" fill="#FFF0B0" opacity="0.18"/>

  <!-- ── BLONDE WIG on mannequin head ── -->
  <!-- Wig cap / hair base at crown — thick volume -->
  <ellipse cx="743" cy="76" rx="52" ry="36" fill="#8A6820" opacity="0.92"/>
  <ellipse cx="743" cy="70" rx="46" ry="30" fill="#A87C28" opacity="0.88"/>
  <!-- Hair part centre top -->
  <path d="M 743 50 L 743 82" stroke="#6A5018" stroke-width="2.5" opacity="0.6"/>
  <!-- Wig volume sides (hair billowing out at sides before flowing down) -->
  <!-- Left wig volume -->
  <ellipse cx="706" cy="84" rx="32" ry="22" fill="#9A7422" opacity="0.85"/>
  <ellipse cx="694" cy="92" rx="24" ry="18" fill="#A87C28" opacity="0.8"/>
  <!-- Right wig volume -->
  <ellipse cx="780" cy="84" rx="32" ry="22" fill="#9A7422" opacity="0.85"/>
  <ellipse cx="792" cy="92" rx="24" ry="18" fill="#A87C28" opacity="0.8"/>
  <!-- Crown shine -->
  <path d="M 714 62 Q 743 52 772 62" stroke="#F0DA80" stroke-width="14" fill="none" opacity="0.38" stroke-linecap="round"/>
  <path d="M 722 58 Q 743 50 764 58" stroke="#FFF0A8" stroke-width="6" fill="none" opacity="0.35" stroke-linecap="round"/>
  <!-- Hair at forehead/hairline blending into face -->
  <path d="M 698 92 Q 710 80 724 76 Q 733 73 743 72 Q 753 73 762 76 Q 776 80 788 92"
    stroke="#7A5C18" stroke-width="11" fill="none" opacity="0.88" stroke-linecap="round"/>
  <path d="M 702 94 Q 714 82 726 78 Q 734 75 743 74 Q 752 75 760 78 Q 772 82 784 94"
    stroke="#C9A036" stroke-width="5" fill="none" opacity="0.6" stroke-linecap="round"/>
  <!-- Wispy hairline strands across forehead -->
  <g opacity="0.55" stroke="#C9A036" stroke-width="1.2" fill="none" stroke-linecap="round">
    <path d="M 706 88 Q 714 84 720 88 Q 724 92 722 98"/>
    <path d="M 714 82 Q 720 78 724 84 Q 726 90 724 96"/>
    <path d="M 760 82 Q 766 78 770 84 Q 772 90 770 96"/>
    <path d="M 768 88 Q 774 84 778 90 Q 780 96 778 102"/>
  </g>

  <!-- ─────────────────────────────────────────── -->
  <!-- ──── BLONDE HAIR flowing LEFT ─────────────── -->
  <!-- Root: mannequin head (743, 80), sweeps LEFT -->
  <!-- Some strands drape on BAG below y:420       -->
  <!-- ─────────────────────────────────────────── -->

  <!-- ── HAIR MASS — main body sweeping left and down ── -->
  <g fill="none" stroke-linecap="round" filter="url(#hairBlur)">

    <!-- Dark base strands (long sweep from head to far left) -->
    <g opacity="0.88" stroke="#8A6820">
      <path d="M 740 72 Q 700 95 660 130 Q 610 175 555 220 Q 490 268 420 310 Q 350 350 280 380 Q 210 406 140 420 Q 95 430 55 435" stroke-width="5.5"/>
      <path d="M 742 74 Q 704 98 665 134 Q 615 180 560 225 Q 495 274 425 315 Q 355 355 285 385 Q 215 411 145 425 Q 100 435 58 440" stroke-width="5"/>
      <path d="M 744 76 Q 708 100 670 137 Q 620 184 565 228 Q 500 278 430 318 Q 362 358 292 388 Q 222 414 152 428 Q 108 438 65 443" stroke-width="4.5"/>
      <path d="M 738 76 Q 698 100 657 137 Q 605 185 550 230 Q 484 280 415 320 Q 345 360 276 390 Q 206 417 138 430 Q 95 440 50 446" stroke-width="5"/>
      <path d="M 736 78 Q 695 103 653 141 Q 600 190 544 235 Q 478 285 408 325 Q 338 365 268 395 Q 198 422 130 435 Q 88 445 44 451" stroke-width="4.5"/>
      <path d="M 746 74 Q 710 97 672 132 Q 624 178 570 222 Q 505 272 436 312 Q 367 352 298 382 Q 228 408 160 422 Q 116 432 72 437" stroke-width="5"/>
      <path d="M 748 76 Q 714 99 677 134 Q 630 180 576 224 Q 512 274 443 314 Q 374 354 305 384 Q 235 411 167 424 Q 123 434 80 439" stroke-width="4.5"/>
      <path d="M 750 78 Q 718 101 682 136 Q 636 182 582 226 Q 518 276 450 316 Q 381 356 312 386 Q 242 413 174 426 Q 130 436 88 441" stroke-width="4"/>
    </g>

    <!-- Midtone blonde strands -->
    <g opacity="0.72" stroke="#C8A040">
      <path d="M 741 74 Q 703 97 664 133 Q 614 180 558 225 Q 493 275 423 315 Q 353 355 283 385 Q 213 412 145 425 Q 102 435 62 440" stroke-width="3.5"/>
      <path d="M 743 76 Q 707 99 669 135 Q 619 182 563 227 Q 498 277 428 317 Q 358 357 288 387 Q 218 414 150 427 Q 107 437 68 442" stroke-width="3.8"/>
      <path d="M 745 78 Q 711 101 674 137 Q 624 184 569 229 Q 504 279 435 318 Q 366 358 297 388 Q 227 415 159 428 Q 116 438 75 443" stroke-width="3.5"/>
      <path d="M 747 76 Q 715 99 679 134 Q 631 181 577 225 Q 513 274 444 313 Q 375 352 307 382 Q 238 409 170 423 Q 128 433 86 438" stroke-width="3.8"/>
      <path d="M 737 78 Q 697 102 657 139 Q 604 187 548 232 Q 482 282 412 322 Q 342 362 272 392 Q 202 419 134 432 Q 92 442 50 447" stroke-width="3.5"/>
    </g>

    <!-- Bright shine threads -->
    <g opacity="0.62" stroke="#F8EEA8">
      <path d="M 742 74 Q 706 97 668 133 Q 618 180 562 225 Q 497 275 427 315 Q 357 355 287 385 Q 217 412 149 425" stroke-width="1.5"/>
      <path d="M 744 76 Q 710 99 673 135 Q 623 182 567 226 Q 502 276 432 316 Q 362 356 292 386 Q 222 413 154 426" stroke-width="1.8"/>
      <path d="M 746 78 Q 714 101 677 137 Q 628 184 573 228 Q 508 278 438 318 Q 368 358 298 388 Q 228 415 160 428" stroke-width="1.5"/>
      <path d="M 740 76 Q 702 100 663 136 Q 612 183 556 228 Q 490 278 420 318 Q 350 358 280 388 Q 210 415 142 428" stroke-width="1.8"/>
    </g>

    <!-- Fine shimmer -->
    <g opacity="0.38" stroke="#FFFEF0">
      <path d="M 743 75 Q 709 98 672 134 Q 622 181 567 225 Q 502 275 433 314 Q 364 353 295 383 Q 225 410 157 423" stroke-width="0.8"/>
      <path d="M 745 77 Q 713 100 676 136 Q 627 183 572 227 Q 507 277 438 316 Q 369 355 300 385 Q 230 412 162 425" stroke-width="0.9"/>
      <path d="M 741 75 Q 705 99 667 135 Q 616 182 561 226 Q 495 276 425 316 Q 355 356 285 386 Q 215 413 147 426" stroke-width="0.8"/>
    </g>
  </g>

  <!-- ── HAIR DRAPING ON LOWER BAG (below text area, y420-538) ── -->
  <!-- These strands loop from far left back to the bag's lower section -->
  <g fill="none" stroke-linecap="round" opacity="0.72">
    <!-- Dark strands draping back over bag lower portion -->
    <path d="M 320 395 Q 380 420 440 440 Q 510 462 580 472 Q 635 480 680 482 Q 710 482 728 490 Q 736 494 740 510 Q 744 526 742 538"
      stroke="#8A6820" stroke-width="4.5"/>
    <path d="M 295 388 Q 358 414 420 435 Q 492 458 564 468 Q 618 476 663 478 Q 694 478 714 487 Q 724 492 729 508 Q 733 522 730 538"
      stroke="#9A7828" stroke-width="4"/>
    <path d="M 340 400 Q 400 424 462 444 Q 532 464 602 474 Q 650 482 693 484 Q 718 484 733 493 Q 740 498 743 515 Q 745 530 742 538"
      stroke="#8A6820" stroke-width="3.5"/>
    <path d="M 265 382 Q 332 410 396 432 Q 470 456 544 466 Q 598 474 644 476 Q 676 476 698 485 Q 710 490 716 506 Q 721 520 718 538"
      stroke="#C0A038" stroke-width="3.5" opacity="0.65"/>
    <path d="M 308 392 Q 370 417 434 438 Q 506 460 576 470 Q 626 478 671 480 Q 700 480 720 488 Q 730 493 734 510 Q 737 524 734 538"
      stroke="#F0D880" stroke-width="1.8" opacity="0.5"/>
    <path d="M 350 402 Q 410 426 474 446 Q 544 467 614 477 Q 660 485 702 486 Q 725 486 738 496 Q 745 501 746 518 Q 748 532 745 538"
      stroke="#F8EEA0" stroke-width="1.4" opacity="0.4"/>
  </g>

  <!-- ── HAIR AT ROOT — voluminous wig origin ── -->
  <!-- Wide spread at crown before flowing left -->
  <g fill="none" stroke-linecap="round" opacity="0.9">
    <!-- From wig left side, sweeping out -->
    <path d="M 698 78 Q 675 72 655 78 Q 630 88 608 104 Q 580 124 550 148"
      stroke="#8A6818" stroke-width="6"/>
    <path d="M 700 80 Q 678 74 658 80 Q 632 90 610 106 Q 582 126 554 150"
      stroke="#A87C28" stroke-width="5.5"/>
    <path d="M 702 82 Q 682 76 662 82 Q 636 92 614 108 Q 586 128 558 152"
      stroke="#C09030" stroke-width="4.5"/>
    <!-- From crown top left, swooping wide -->
    <path d="M 720 62 Q 694 58 666 64 Q 634 74 600 96 Q 562 122 520 152"
      stroke="#9A7422" stroke-width="5.5"/>
    <path d="M 730 58 Q 706 54 680 60 Q 648 70 614 92 Q 576 118 534 148"
      stroke="#C09030" stroke-width="4.5"/>
    <path d="M 738 56 Q 718 52 694 58 Q 664 68 630 90 Q 592 116 550 146"
      stroke="#D0A840" stroke-width="3.5"/>
    <!-- Shine threads from root -->
    <path d="M 714 64 Q 690 60 664 66 Q 636 76 604 98 Q 568 124 528 154"
      stroke="#F8ECA0" stroke-width="1.8" opacity="0.6"/>
    <path d="M 724 60 Q 702 56 678 62 Q 650 72 618 94 Q 582 120 542 150"
      stroke="#FFFEF0" stroke-width="1.4" opacity="0.55"/>
  </g>

  <!-- ─── OVERLAYS ─── -->
  <!-- Left atmospheric depth (hair comes from this side) -->
  <rect width="1440" height="580" fill="url(#leftDepth)"/>
  <!-- Centre darkening for text readability -->
  <rect width="1440" height="580" fill="url(#centreOverlay)"/>
  <!-- Edge vignette -->
  <rect width="1440" height="580" fill="url(#vignette)"/>
</svg>
