<svg xmlns="http://www.w3.org/2000/svg" viewBox="-308 -124 2057 829" preserveAspectRatio="xMidYMid slice" width="1440" height="580">
  <defs>
    <linearGradient id="tBg" x1="0" y1="0" x2="1" y2="0">
      <stop offset="0%" stop-color="#424040"/><stop offset="28%" stop-color="#555250"/>
      <stop offset="54%" stop-color="#5E5A56"/><stop offset="78%" stop-color="#575350"/>
      <stop offset="100%" stop-color="#4A4744"/>
    </linearGradient>
    <linearGradient id="tTopS" x1="0" y1="0" x2="0" y2="1">
      <stop offset="0%" stop-color="#1C1810" stop-opacity="0.52"/>
      <stop offset="38%" stop-color="#1C1810" stop-opacity="0"/>
      <stop offset="100%" stop-color="#100C08" stop-opacity="0.38"/>
    </linearGradient>
    <radialGradient id="tKey" cx="65%" cy="12%" r="55%">
      <stop offset="0%" stop-color="#807060" stop-opacity="0.55"/>
      <stop offset="100%" stop-color="#5E5A56" stop-opacity="0"/>
    </radialGradient>
    <linearGradient id="tFloor" x1="0" y1="0" x2="0" y2="1">
      <stop offset="0%" stop-color="#363230"/><stop offset="100%" stop-color="#242018"/>
    </linearGradient>
    <linearGradient id="vigL" x1="0" y1="0" x2="1" y2="0">
      <stop offset="0%" stop-color="#C8C8C8" stop-opacity="0.35"/>
      <stop offset="100%" stop-color="#C8C8C8" stop-opacity="0"/>
    </linearGradient>
    <linearGradient id="vigR" x1="0" y1="0" x2="1" y2="0">
      <stop offset="0%" stop-color="#C8C8C8" stop-opacity="0"/>
      <stop offset="100%" stop-color="#C8C8C8" stop-opacity="0.35"/>
    </linearGradient>
    <linearGradient id="vigB" x1="0" y1="0" x2="0" y2="1">
      <stop offset="0%" stop-color="#D0D0D0" stop-opacity="0"/>
      <stop offset="100%" stop-color="#D0D0D0" stop-opacity="0.28"/>
    </linearGradient>
    <linearGradient id="tGold" x1="0" y1="0" x2="1" y2="1">
      <stop offset="0%" stop-color="#8A6418"/><stop offset="28%" stop-color="#C9A96E"/>
      <stop offset="55%" stop-color="#E8CB85"/><stop offset="80%" stop-color="#C9A040"/>
      <stop offset="100%" stop-color="#8A6418"/>
    </linearGradient>
    <linearGradient id="counter" x1="0" y1="0" x2="0" y2="1">
      <stop offset="0%" stop-color="#3A3430"/><stop offset="100%" stop-color="#201C18"/>
    </linearGradient>
    <linearGradient id="mirrorF" x1="0" y1="0" x2="1" y2="1">
      <stop offset="0%" stop-color="#7A5A18"/><stop offset="30%" stop-color="#C9A96E"/>
      <stop offset="55%" stop-color="#E8CB85"/><stop offset="100%" stop-color="#8A6418"/>
    </linearGradient>
    <linearGradient id="mirrorG" x1="0" y1="0" x2="1" y2="1">
      <stop offset="0%" stop-color="#888676" stop-opacity="0.3"/>
      <stop offset="50%" stop-color="#d6cfaa" stop-opacity="0.1"/>
      <stop offset="100%" stop-color="#5a574b" stop-opacity="0.35"/>
    </linearGradient>
    <linearGradient id="hairW" x1="0" y1="0" x2="0" y2="1">
      <stop offset="0%" stop-color="#3A2C1C"/><stop offset="100%" stop-color="#1C140C"/>
    </linearGradient>
    <filter id="tSh" x="-20%" y="-20%" width="140%" height="140%">
      <feDropShadow dx="0" dy="18" stdDeviation="18" flood-color="#000" flood-opacity="0.5"/>
    </filter>
    <filter id="tSo" x="-20%" y="-20%" width="140%" height="140%">
      <feDropShadow dx="0" dy="8" stdDeviation="10" flood-color="#000" flood-opacity="0.4"/>
    </filter>
  </defs>

  <!-- BACKDROP -->
  <rect x="-308" y="-124" width="2057" height="829" fill="url(#tBg)"/>
  <rect x="-308" y="-124" width="2057" height="829" fill="url(#tTopS)"/>
  <rect x="-308" y="-124" width="2057" height="829" fill="url(#tKey)"/>
  <rect x="-308" y="440" width="2057" height="265" fill="url(#tFloor)"/>
  <rect x="-308" y="438" width="2057" height="5" fill="#14100C" opacity="0.38"/>

  <!-- LARGE GOLD MIRROR -->
  <g filter="url(#tSh)">
    <rect x="560" y="-80" width="780" height="700" rx="18" fill="url(#mirrorF)"/>
    <rect x="578" y="-62" width="744" height="664" rx="12" fill="url(#mirrorG)" stroke="#5d461a" stroke-width="2"/>
    <rect x="598" y="-42" width="704" height="624" rx="8" fill="#5b594f" opacity="0.18"/>
    <circle cx="578"  cy="-62" r="10" fill="url(#tGold)"/>
    <circle cx="1322" cy="-62" r="10" fill="url(#tGold)"/>
    <circle cx="578"  cy="602" r="10" fill="url(#tGold)"/>
    <circle cx="1322" cy="602" r="10" fill="url(#tGold)"/>
    <rect x="590" y="-50" width="720" height="640" rx="10" fill="none" stroke="#C9A96E" stroke-width="1.2" opacity="0.28"/>
  </g>

  <!-- CERTIFICATE IN MIRROR -->
  <g transform="translate(665 22)" opacity="0.28">
    <rect x="0" y="0" width="275" height="195" rx="6" fill="none" stroke="#C9A96E" stroke-width="2"/>
    <rect x="8" y="8" width="259" height="179" rx="4" fill="none" stroke="#C9A96E" stroke-width="0.8" opacity="0.5"/>
    <text x="138" y="52" text-anchor="middle" font-family="Montserrat,Arial,sans-serif" font-size="7" font-weight="700" letter-spacing="3" fill="#C9A96E">CERTIFICATE OF EXCELLENCE</text>
    <line x1="38" y1="62" x2="238" y2="62" stroke="#C9A96E" stroke-width="0.8" opacity="0.5"/>
    <text x="138" y="98" text-anchor="middle" font-family="Georgia,serif" font-size="23" fill="#C9A96E">Hair Extension</text>
    <text x="138" y="124" text-anchor="middle" font-family="Georgia,serif" font-size="19" font-style="italic" fill="#C9A96E">Specialist</text>
    <line x1="48" y1="142" x2="228" y2="142" stroke="#C9A96E" stroke-width="0.6" opacity="0.4"/>
    <text x="138" y="168" text-anchor="middle" font-family="Montserrat,Arial,sans-serif" font-size="7" fill="#C9A96E" opacity="0.7" letter-spacing="2">OlivHairSupply Academy</text>
  </g>

  <!-- COUNTER SURFACE -->
  <rect x="380" y="382" width="1100" height="86" rx="4" fill="url(#counter)"/>
  <rect x="380" y="382" width="1100" height="3" fill="#C9A96E" opacity="0.55"/>
  <rect x="394" y="388" width="1072" height="1" fill="#C9A96E" opacity="0.1"/>

  <!-- HAIR WEFT HANGING (left area) -->
  <g transform="translate(432 58)" filter="url(#tSo)">
    <rect x="0" y="0" width="148" height="6" rx="3" fill="url(#tGold)"/>
    <ellipse cx="24"  cy="-9" rx="6" ry="8" fill="none" stroke="#C9A96E" stroke-width="2.5" opacity="0.72"/>
    <ellipse cx="74"  cy="-9" rx="6" ry="8" fill="none" stroke="#C9A96E" stroke-width="2.5" opacity="0.72"/>
    <ellipse cx="124" cy="-9" rx="6" ry="8" fill="none" stroke="#C9A96E" stroke-width="2.5" opacity="0.72"/>
    <rect x="6" y="6" width="136" height="11" rx="3" fill="url(#hairW)"/>
    <rect x="6" y="6" width="136" height="11" rx="3" fill="none" stroke="#C9A96E" stroke-width="0.8" opacity="0.45"/>
    <!-- Hair strands -->
    <path d="M14 17 Q10 128 12 292" stroke="#3A2415" stroke-width="1.9" fill="none" opacity="0.9"/>
    <path d="M21 17 Q25 148 19 302" stroke="#4A3020" stroke-width="1.7" fill="none" opacity="0.9"/>
    <path d="M28 17 Q22 115 26 286" stroke="#5A3C28" stroke-width="1.5" fill="none" opacity="0.9"/>
    <path d="M35 17 Q39 138 33 295" stroke="#3A2415" stroke-width="1.8" fill="none" opacity="0.9"/>
    <path d="M42 17 Q36 126 40 280" stroke="#4A3020" stroke-width="1.6" fill="none" opacity="0.9"/>
    <path d="M54 17 Q50 135 52 290" stroke="#3A2415" stroke-width="1.9" fill="none" opacity="0.9"/>
    <path d="M61 17 Q65 155 59 305" stroke="#4A3020" stroke-width="1.7" fill="none" opacity="0.9"/>
    <path d="M68 17 Q62 118 66 285" stroke="#5A3C28" stroke-width="1.5" fill="none" opacity="0.9"/>
    <path d="M75 17 Q79 145 73 295" stroke="#3A2415" stroke-width="1.8" fill="none" opacity="0.9"/>
    <path d="M82 17 Q76 130 80 282" stroke="#4A3020" stroke-width="1.6" fill="none" opacity="0.9"/>
    <path d="M94 17 Q90 140 92 292" stroke="#3A2415" stroke-width="1.9" fill="none" opacity="0.9"/>
    <path d="M101 17 Q105 160 99 306" stroke="#4A3020" stroke-width="1.7" fill="none" opacity="0.9"/>
    <path d="M108 17 Q102 120 106 288" stroke="#5A3C28" stroke-width="1.5" fill="none" opacity="0.9"/>
    <path d="M115 17 Q119 150 113 298" stroke="#3A2415" stroke-width="1.8" fill="none" opacity="0.9"/>
    <path d="M122 17 Q116 134 120 283" stroke="#4A3020" stroke-width="1.6" fill="none" opacity="0.9"/>
    <!-- Sheen -->
    <path d="M24 24 Q20 92 22 192" stroke="#9A7040" stroke-width="0.7" fill="none" opacity="0.38"/>
    <path d="M64 24 Q60 98 62 200" stroke="#9A7040" stroke-width="0.7" fill="none" opacity="0.38"/>
    <path d="M104 24 Q100 104 102 206" stroke="#9A7040" stroke-width="0.7" fill="none" opacity="0.38"/>
  </g>

  <!-- SCISSORS A -->
  <g transform="translate(835 292) rotate(-38 32 92)" filter="url(#tSo)">
    <path d="M26 0 L38 0 L40 168 L24 168 Z" fill="url(#tGold)"/>
    <path d="M14 0 L26 0 L24 168 L12 168 Z" fill="url(#tGold)"/>
    <path d="M28 2 L36 2 L37 165 L27 165 Z" fill="#E8CB85" opacity="0.22"/>
    <circle cx="26" cy="162" r="9.5" fill="url(#tGold)"/>
    <circle cx="26" cy="162" r="5"   fill="#8A6418"/>
    <ellipse cx="14" cy="202" rx="18" ry="25" fill="url(#tGold)" stroke="#8A6418" stroke-width="2"/>
    <ellipse cx="14" cy="202" rx="11" ry="17" fill="none"        stroke="#E8CB85" stroke-width="1.5" opacity="0.5"/>
    <ellipse cx="40" cy="202" rx="18" ry="25" fill="url(#tGold)" stroke="#8A6418" stroke-width="2"/>
    <ellipse cx="40" cy="202" rx="11" ry="17" fill="none"        stroke="#E8CB85" stroke-width="1.5" opacity="0.5"/>
  </g>

  <!-- SCISSORS B (open) -->
  <g transform="translate(995 270) rotate(24 30 80)" opacity="0.78">
    <path d="M22 0 L34 0 L32 152 L20 152 Z" fill="url(#tGold)"/>
    <path d="M34 0 L46 0 L44 152 L32 152 Z" fill="url(#tGold)"/>
    <circle cx="33" cy="147" r="8.5" fill="url(#tGold)"/>
    <circle cx="33" cy="147" r="4"   fill="#8A6418"/>
    <ellipse cx="18" cy="180" rx="16" ry="23" fill="url(#tGold)" stroke="#8A6418" stroke-width="1.5"/>
    <ellipse cx="48" cy="180" rx="16" ry="23" fill="url(#tGold)" stroke="#8A6418" stroke-width="1.5"/>
  </g>

  <!-- LUXURY COMB -->
  <g transform="translate(1112 320) rotate(14 31 53)">
    <rect x="0"  y="0"  width="62" height="19" rx="4" fill="url(#tGold)"/>
    <rect x="4"  y="19" width="4.5" height="56" rx="2" fill="url(#tGold)"/>
    <rect x="12" y="19" width="4.5" height="56" rx="2" fill="url(#tGold)"/>
    <rect x="20" y="19" width="4.5" height="56" rx="2" fill="url(#tGold)"/>
    <rect x="28" y="19" width="4.5" height="56" rx="2" fill="url(#tGold)"/>
    <rect x="36" y="19" width="4.5" height="56" rx="2" fill="url(#tGold)"/>
    <rect x="44" y="19" width="4.5" height="56" rx="2" fill="url(#tGold)"/>
    <rect x="52" y="19" width="4.5" height="56" rx="2" fill="url(#tGold)"/>
  </g>

  <!-- EXTENSION COLOUR CARD -->
  <g transform="translate(1172 48)" filter="url(#tSo)">
    <rect x="0" y="0" width="208" height="134" rx="10" fill="#1E1A14" opacity="0.96"/>
    <rect x="0" y="0" width="208" height="134" rx="10" fill="none" stroke="#C9A96E" stroke-width="1" opacity="0.52"/>
    <path d="M8 0 L0 8 M200 0 L208 8 M0 126 L8 134 M208 126 L200 134" stroke="#C9A96E" stroke-width="0.8" fill="none" opacity="0.32"/>
    <text x="16" y="22" font-family="Montserrat,Arial,sans-serif" font-size="7.5" font-weight="700" letter-spacing="2.5" fill="#C9A96E" opacity="0.72">BIZILUXE EXTENSIONS</text>
    <line x1="16" y1="28" x2="192" y2="28" stroke="#C9A96E" stroke-width="0.5" opacity="0.2"/>
    <rect x="14"  y="36" width="26" height="64" rx="3" fill="#2A1C10"/>
    <rect x="46"  y="36" width="26" height="64" rx="3" fill="#3A2818"/>
    <rect x="78"  y="36" width="26" height="64" rx="3" fill="#4A3824"/>
    <rect x="110" y="36" width="26" height="64" rx="3" fill="#1A120A"/>
    <rect x="142" y="36" width="26" height="64" rx="3" fill="#6A5240"/>
    <rect x="174" y="36" width="18" height="64" rx="3" fill="#8A7060"/>
    <circle cx="27"  cy="108" r="5.5" fill="#2A1C10" stroke="#C9A96E" stroke-width="0.8"/>
    <circle cx="59"  cy="108" r="5.5" fill="#3A2818" stroke="#C9A96E" stroke-width="0.8"/>
    <circle cx="91"  cy="108" r="5.5" fill="#4A3824" stroke="#C9A96E" stroke-width="0.8"/>
    <circle cx="123" cy="108" r="5.5" fill="#1A120A" stroke="#C9A96E" stroke-width="0.8"/>
    <circle cx="155" cy="108" r="5.5" fill="#6A5240" stroke="#C9A96E" stroke-width="0.8"/>
    <circle cx="183" cy="108" r="5.5" fill="#8A7060" stroke="#C9A96E" stroke-width="0.8"/>
    <text x="16" y="126" font-family="Montserrat,Arial,sans-serif" font-size="6.5" fill="#C9A96E" opacity="0.38" letter-spacing="1">100% Remy Human Hair</text>
  </g>

  <!-- TRAINING MANUAL -->
  <g transform="translate(626 332)" filter="url(#tSo)">
    <ellipse cx="87" cy="66" rx="84" ry="7" fill="#000" opacity="0.36"/>
    <rect x="5" y="5" width="164" height="51" rx="3" fill="#1A140E"/>
    <rect x="8" y="2" width="158" height="51" rx="2" fill="#F0E8D8" opacity="0.84"/>
    <rect x="10" y="0" width="154" height="51" rx="2" fill="#EDE0C8" opacity="0.72"/>
    <rect x="0" y="0" width="170" height="52" rx="4" fill="#1E1810"/>
    <rect x="0" y="0" width="170" height="52" rx="4" fill="none" stroke="#C9A96E" stroke-width="1.5" opacity="0.72"/>
    <rect x="6" y="5" width="158" height="42" rx="2" fill="none" stroke="#C9A96E" stroke-width="0.7" opacity="0.26"/>
    <text x="85" y="20" text-anchor="middle" font-family="Montserrat,Arial,sans-serif" font-size="6.5" font-weight="700" letter-spacing="2.5" fill="#C9A96E" opacity="0.9">OLIV ACADEMY</text>
    <text x="85" y="33" text-anchor="middle" font-family="Georgia,serif" font-size="13" fill="#C9A96E" opacity="0.88">Training Manual</text>
    <line x1="16" y1="39" x2="154" y2="39" stroke="#C9A96E" stroke-width="0.5" opacity="0.28"/>
    <text x="85" y="46" text-anchor="middle" font-family="Montserrat,Arial,sans-serif" font-size="5.5" fill="#C9A96E" opacity="0.45" letter-spacing="1.5">PROFESSIONAL SERIES</text>
  </g>

  <!-- BRUSHES -->
  <g transform="translate(1272 280)" opacity="0.82">
    <rect x="0"  y="0" width="14" height="66" rx="5" fill="url(#tGold)"/>
    <rect x="0"  y="0" width="14" height="20" rx="5" fill="#B68A45"/>
    <rect x="2"  y="66" width="10" height="30" rx="2" fill="#3A2C1C"/>
    <rect x="22" y="0" width="18" height="72" rx="5" fill="url(#tGold)"/>
    <rect x="22" y="0" width="18" height="22" rx="5" fill="#C9A040"/>
    <rect x="24" y="72" width="14" height="36" rx="2" fill="#3A2C1C"/>
    <rect x="48" y="0" width="12" height="58" rx="5" fill="url(#tGold)"/>
    <rect x="48" y="0" width="12" height="18" rx="5" fill="#B68A45"/>
    <rect x="50" y="58" width="8"  height="28" rx="2" fill="#3A2C1C"/>
  </g>

  <!-- VIGNETTES -->
  <rect x="-308" y="-124" width="2057" height="829" fill="url(#vigL)"/>
  <rect x="-308" y="-124" width="2057" height="829" fill="url(#vigR)"/>
  <rect x="-308" y="-124" width="2057" height="829" fill="url(#vigB)"/>
</svg>
