<svg xmlns="http://www.w3.org/2000/svg" viewBox="0 0 580 900" width="580" height="900">
  <defs>
    <linearGradient id="mBg" x1="0" y1="0" x2="0.5" y2="1">
      <stop offset="0%"   stop-color="#424040"/>
      <stop offset="35%"  stop-color="#555250"/>
      <stop offset="65%"  stop-color="#5E5A56"/>
      <stop offset="100%" stop-color="#3A3836"/>
    </linearGradient>
    <radialGradient id="mKey" cx="50%" cy="30%" r="60%">
      <stop offset="0%"   stop-color="#807060" stop-opacity="0.5"/>
      <stop offset="100%" stop-color="#5E5A56" stop-opacity="0"/>
    </radialGradient>
    <linearGradient id="mFloor" x1="0" y1="0" x2="0" y2="1">
      <stop offset="0%" stop-color="#363230"/>
      <stop offset="100%" stop-color="#1C1810"/>
    </linearGradient>
    <linearGradient id="mGold" x1="0" y1="0" x2="1" y2="1">
      <stop offset="0%"   stop-color="#8A6418"/>
      <stop offset="30%"  stop-color="#C9A96E"/>
      <stop offset="58%"  stop-color="#E8CB85"/>
      <stop offset="80%"  stop-color="#C9A040"/>
      <stop offset="100%" stop-color="#8A6418"/>
    </linearGradient>
    <linearGradient id="mirrorF" x1="0" y1="0" x2="1" y2="1">
      <stop offset="0%"   stop-color="#7A5A18"/>
      <stop offset="30%"  stop-color="#C9A96E"/>
      <stop offset="55%"  stop-color="#E8CB85"/>
      <stop offset="100%" stop-color="#8A6418"/>
    </linearGradient>
    <linearGradient id="mirrorG" x1="0" y1="0" x2="1" y2="1">
      <stop offset="0%"   stop-color="#888676" stop-opacity="0.28"/>
      <stop offset="50%"  stop-color="#d6cfaa" stop-opacity="0.1"/>
      <stop offset="100%" stop-color="#5a574b" stop-opacity="0.32"/>
    </linearGradient>
    <linearGradient id="counter" x1="0" y1="0" x2="0" y2="1">
      <stop offset="0%"   stop-color="#3A3430"/>
      <stop offset="100%" stop-color="#201C18"/>
    </linearGradient>
    <linearGradient id="hairW" x1="0" y1="0" x2="0" y2="1">
      <stop offset="0%"   stop-color="#3A2C1C"/>
      <stop offset="100%" stop-color="#1C140C"/>
    </linearGradient>
    <linearGradient id="vigT" x1="0" y1="0" x2="0" y2="1">
      <stop offset="0%"   stop-color="#1C1810" stop-opacity="0.55"/>
      <stop offset="40%"  stop-color="#1C1810" stop-opacity="0"/>
    </linearGradient>
    <linearGradient id="vigB2" x1="0" y1="0" x2="0" y2="1">
      <stop offset="0%"   stop-color="#100C08" stop-opacity="0"/>
      <stop offset="100%" stop-color="#100C08" stop-opacity="0.45"/>
    </linearGradient>
    <filter id="mSh" x="-15%" y="-10%" width="130%" height="130%">
      <feDropShadow dx="0" dy="20" stdDeviation="22" flood-color="#000" flood-opacity="0.6"/>
    </filter>
    <filter id="mSo" x="-15%" y="-10%" width="130%" height="120%">
      <feDropShadow dx="0" dy="8" stdDeviation="12" flood-color="#000" flood-opacity="0.45"/>
    </filter>
  </defs>

  <!-- BACKDROP -->
  <rect width="580" height="900" fill="url(#mBg)"/>
  <rect width="580" height="900" fill="url(#mKey)"/>
  <rect y="755" width="580" height="145" fill="url(#mFloor)"/>
  <rect y="753" width="580" height="4" fill="#14100C" opacity="0.4"/>

  <!-- LARGE GOLD MIRROR (centred, fills most of frame) -->
  <g filter="url(#mSh)">
    <rect x="58" y="-30" width="464" height="660" rx="16" fill="url(#mirrorF)"/>
    <rect x="72" y="-16" width="436" height="632" rx="11" fill="url(#mirrorG)" stroke="#5d461a" stroke-width="1.5"/>
    <rect x="88" y="0"   width="404" height="600" rx="7"  fill="#5b594f" opacity="0.16"/>
    <circle cx="72"  cy="-16" r="9" fill="url(#mGold)"/>
    <circle cx="508" cy="-16" r="9" fill="url(#mGold)"/>
    <circle cx="72"  cy="616" r="9" fill="url(#mGold)"/>
    <circle cx="508" cy="616" r="9" fill="url(#mGold)"/>
    <rect x="84" y="-4" width="412" height="608" rx="8" fill="none" stroke="#C9A96E" stroke-width="1" opacity="0.28"/>
  </g>

  <!-- CERTIFICATE IN MIRROR -->
  <g transform="translate(118 60)" opacity="0.28">
    <rect x="0" y="0" width="344" height="240" rx="6" fill="none" stroke="#C9A96E" stroke-width="2"/>
    <rect x="8" y="8" width="328" height="224" rx="4" fill="none" stroke="#C9A96E" stroke-width="0.8" opacity="0.5"/>
    <text x="172" y="55" text-anchor="middle" font-family="Montserrat,Arial,sans-serif" font-size="8.5" font-weight="700" letter-spacing="3" fill="#C9A96E">CERTIFICATE OF EXCELLENCE</text>
    <line x1="40" y1="68" x2="304" y2="68" stroke="#C9A96E" stroke-width="0.8" opacity="0.5"/>
    <text x="172" y="115" text-anchor="middle" font-family="Georgia,serif" font-size="30" fill="#C9A96E">Hair Extension</text>
    <text x="172" y="148" text-anchor="middle" font-family="Georgia,serif" font-size="24" font-style="italic" fill="#C9A96E">Specialist</text>
    <line x1="55" y1="170" x2="289" y2="170" stroke="#C9A96E" stroke-width="0.6" opacity="0.4"/>
    <text x="172" y="200" text-anchor="middle" font-family="Montserrat,Arial,sans-serif" font-size="8.5" fill="#C9A96E" opacity="0.7" letter-spacing="2">OlivHairSupply Academy</text>
  </g>

  <!-- COUNTER SURFACE -->
  <rect x="0" y="755" width="580" height="80" fill="url(#counter)"/>
  <rect x="0" y="755" width="580" height="3" fill="#C9A96E" opacity="0.55"/>

  <!-- HAIR WEFT HANGING (left side) -->
  <g transform="translate(28 305)" filter="url(#mSo)">
    <rect x="0" y="0" width="90" height="7" rx="3" fill="url(#mGold)"/>
    <ellipse cx="15" cy="-10" rx="6" ry="8" fill="none" stroke="#C9A96E" stroke-width="2" opacity="0.7"/>
    <ellipse cx="45" cy="-10" rx="6" ry="8" fill="none" stroke="#C9A96E" stroke-width="2" opacity="0.7"/>
    <ellipse cx="75" cy="-10" rx="6" ry="8" fill="none" stroke="#C9A96E" stroke-width="2" opacity="0.7"/>
    <rect x="4" y="7" width="82" height="10" rx="3" fill="url(#hairW)"/>
    <rect x="4" y="7" width="82" height="10" rx="3" fill="none" stroke="#C9A96E" stroke-width="0.7" opacity="0.4"/>
    <path d="M10 17 Q8 100 10 220" stroke="#3A2415" stroke-width="1.8" fill="none" opacity="0.9"/>
    <path d="M16 17 Q20 118 14 230" stroke="#4A3020" stroke-width="1.6" fill="none" opacity="0.9"/>
    <path d="M22 17 Q18 90 20 215" stroke="#5A3C28" stroke-width="1.5" fill="none" opacity="0.9"/>
    <path d="M28 17 Q32 108 26 225" stroke="#3A2415" stroke-width="1.7" fill="none" opacity="0.9"/>
    <path d="M36 17 Q32 96 34 218" stroke="#4A3020" stroke-width="1.6" fill="none" opacity="0.9"/>
    <path d="M44 17 Q40 105 42 222" stroke="#3A2415" stroke-width="1.8" fill="none" opacity="0.9"/>
    <path d="M50 17 Q54 125 48 232" stroke="#4A3020" stroke-width="1.6" fill="none" opacity="0.9"/>
    <path d="M58 17 Q52 92 56 218" stroke="#5A3C28" stroke-width="1.5" fill="none" opacity="0.9"/>
    <path d="M64 17 Q68 112 62 226" stroke="#3A2415" stroke-width="1.7" fill="none" opacity="0.9"/>
    <path d="M72 17 Q66 100 70 220" stroke="#4A3020" stroke-width="1.6" fill="none" opacity="0.9"/>
    <path d="M80 17 Q76 108 78 224" stroke="#3A2415" stroke-width="1.8" fill="none" opacity="0.9"/>
    <!-- Sheen -->
    <path d="M18 24 Q16 72 18 148" stroke="#9A7040" stroke-width="0.6" fill="none" opacity="0.38"/>
    <path d="M52 24 Q50 76 52 152" stroke="#9A7040" stroke-width="0.6" fill="none" opacity="0.38"/>
  </g>

  <!-- SCISSORS on counter right -->
  <g transform="translate(420 660) rotate(-32 32 95)" filter="url(#mSo)">
    <path d="M26 0 L38 0 L40 168 L24 168 Z" fill="url(#mGold)"/>
    <path d="M14 0 L26 0 L24 168 L12 168 Z" fill="url(#mGold)"/>
    <path d="M28 2 L36 2 L37 165 L27 165 Z" fill="#E8CB85" opacity="0.22"/>
    <circle cx="26" cy="162" r="9.5" fill="url(#mGold)"/>
    <circle cx="26" cy="162" r="5"   fill="#8A6418"/>
    <ellipse cx="14" cy="200" rx="18" ry="25" fill="url(#mGold)" stroke="#8A6418" stroke-width="2"/>
    <ellipse cx="14" cy="200" rx="11" ry="17" fill="none"        stroke="#E8CB85" stroke-width="1.5" opacity="0.5"/>
    <ellipse cx="40" cy="200" rx="18" ry="25" fill="url(#mGold)" stroke="#8A6418" stroke-width="2"/>
    <ellipse cx="40" cy="200" rx="11" ry="17" fill="none"        stroke="#E8CB85" stroke-width="1.5" opacity="0.5"/>
  </g>

  <!-- TRAINING MANUAL on counter -->
  <g transform="translate(168 688)" filter="url(#mSo)">
    <ellipse cx="105" cy="68" rx="102" ry="8" fill="#000" opacity="0.36"/>
    <rect x="6" y="6" width="198" height="62" rx="4" fill="#1A140E"/>
    <rect x="10" y="3" width="190" height="62" rx="3" fill="#F0E8D8" opacity="0.84"/>
    <rect x="13" y="0" width="184" height="62" rx="3" fill="#EDE0C8" opacity="0.72"/>
    <rect x="0" y="0" width="210" height="64" rx="5" fill="#1E1810"/>
    <rect x="0" y="0" width="210" height="64" rx="5" fill="none" stroke="#C9A96E" stroke-width="1.8" opacity="0.75"/>
    <rect x="7" y="6" width="196" height="52" rx="3" fill="none" stroke="#C9A96E" stroke-width="0.8" opacity="0.28"/>
    <text x="105" y="24" text-anchor="middle" font-family="Montserrat,Arial,sans-serif" font-size="8" font-weight="700" letter-spacing="3" fill="#C9A96E" opacity="0.92">OLIV ACADEMY</text>
    <text x="105" y="42" text-anchor="middle" font-family="Georgia,serif" font-size="16" fill="#C9A96E" opacity="0.9">Training Manual</text>
    <line x1="20" y1="50" x2="190" y2="50" stroke="#C9A96E" stroke-width="0.6" opacity="0.28"/>
    <text x="105" y="58" text-anchor="middle" font-family="Montserrat,Arial,sans-serif" font-size="6.5" fill="#C9A96E" opacity="0.45" letter-spacing="2">PROFESSIONAL SERIES</text>
  </g>

  <!-- EXTENSION COLOUR SWATCHES (floating card, top right) -->
  <g transform="translate(390 310)" filter="url(#mSo)">
    <rect x="0" y="0" width="168" height="115" rx="10" fill="#1E1A14" opacity="0.96"/>
    <rect x="0" y="0" width="168" height="115" rx="10" fill="none" stroke="#C9A96E" stroke-width="1" opacity="0.52"/>
    <text x="12" y="18" font-family="Montserrat,Arial,sans-serif" font-size="7" font-weight="700" letter-spacing="2" fill="#C9A96E" opacity="0.7">HAIR COLOURS</text>
    <line x1="12" y1="23" x2="156" y2="23" stroke="#C9A96E" stroke-width="0.5" opacity="0.2"/>
    <rect x="12" y="30" width="20" height="50" rx="3" fill="#2A1C10"/>
    <rect x="36" y="30" width="20" height="50" rx="3" fill="#3A2818"/>
    <rect x="60" y="30" width="20" height="50" rx="3" fill="#4A3824"/>
    <rect x="84" y="30" width="20" height="50" rx="3" fill="#1A120A"/>
    <rect x="108" y="30" width="20" height="50" rx="3" fill="#6A5240"/>
    <rect x="132" y="30" width="20" height="50" rx="3" fill="#8A7060"/>
    <circle cx="22"  cy="90" r="5" fill="#2A1C10" stroke="#C9A96E" stroke-width="0.7"/>
    <circle cx="46"  cy="90" r="5" fill="#3A2818" stroke="#C9A96E" stroke-width="0.7"/>
    <circle cx="70"  cy="90" r="5" fill="#4A3824" stroke="#C9A96E" stroke-width="0.7"/>
    <circle cx="94"  cy="90" r="5" fill="#1A120A" stroke="#C9A96E" stroke-width="0.7"/>
    <circle cx="118" cy="90" r="5" fill="#6A5240" stroke="#C9A96E" stroke-width="0.7"/>
    <circle cx="142" cy="90" r="5" fill="#8A7060" stroke="#C9A96E" stroke-width="0.7"/>
    <text x="12" y="108" font-family="Montserrat,Arial,sans-serif" font-size="6" fill="#C9A96E" opacity="0.35" letter-spacing="0.8">100% Remy Human Hair</text>
  </g>

  <!-- COMB on counter -->
  <g transform="translate(48 688) rotate(8 30 50)">
    <rect x="0" y="0" width="55" height="16" rx="4" fill="url(#mGold)"/>
    <rect x="4"  y="16" width="4" height="48" rx="2" fill="url(#mGold)"/>
    <rect x="12" y="16" width="4" height="48" rx="2" fill="url(#mGold)"/>
    <rect x="20" y="16" width="4" height="48" rx="2" fill="url(#mGold)"/>
    <rect x="28" y="16" width="4" height="48" rx="2" fill="url(#mGold)"/>
    <rect x="36" y="16" width="4" height="48" rx="2" fill="url(#mGold)"/>
    <rect x="44" y="16" width="4" height="48" rx="2" fill="url(#mGold)"/>
  </g>

  <!-- VIGNETTES -->
  <rect width="580" height="900" fill="url(#vigT)"/>
  <rect width="580" height="900" fill="url(#vigB2)"/>
</svg>
